<svg width="104" height="66" viewBox="0 0 104 66" fill="none" xmlns="http://www.w3.org/2000/svg" xmlns:xlink="http://www.w3.org/1999/xlink">
<path d="M5.473,28.473C2.712,28.473 0.473,30.712 0.473,33.473C0.473,36.234 2.712,38.473 5.473,38.473L5.473,28.473ZM97.473,38.473C100.235,38.473 102.473,36.234 102.473,33.473C102.473,30.712 100.235,28.473 97.473,28.473L97.473,38.473ZM5.473,38.473L97.473,38.473L97.473,28.473L5.473,28.473L5.473,38.473Z" transform="rotate(90 51.473 33.473)" fill="#000000"/>
<path d="M5.473,28.473C2.712,28.473 0.473,30.712 0.473,33.473C0.473,36.234 2.712,38.473 5.473,38.473L5.473,28.473ZM97.473,38.473C100.234,38.473 102.473,36.234 102.473,33.473C102.473,30.712 100.234,28.473 97.473,28.473L97.473,38.473ZM5.473,38.473L97.473,38.473L97.473,28.473L5.473,28.473L5.473,38.473Z" transform="rotate(270 51.473 33.473)" fill="#000000"/>
</svg>
