<svg width="48" height="48" viewBox="0 0 48 48" fill="none" xmlns="http://www.w3.org/2000/svg" xmlns:xlink="http://www.w3.org/1999/xlink">
<path d="M13.636,4.001C10.523,4.001 8.667,5.858 8.667,8.971L8.667,39.031C8.667,42.144 10.523,44.001 13.636,44.001L26.338,44.001C25.932,43.462 25.59,42.872 25.324,42.243L13.717,42.243C12.68,42.243 10.333,41.001 10.505,39.031L10.505,8.971C10.505,7.001 12.68,5.759 13.717,5.759L24.828,5.759L24.828,16.486C24.828,18.353 25.176,18.349 26.757,18.329C26.933,18.327 27.125,18.324 27.333,18.324L37.98,18.324L37.98,32.322C38.688,32.851 39.309,33.49 39.818,34.213L39.818,18.042C39.818,17.795 39.825,17.566 39.831,17.352C39.862,16.269 39.882,15.549 39,14.667L28.667,5C27.664,3.997 27.308,3.998 25.998,4.001L25.777,4.001L13.636,4.001ZM37.868,16.486L26.667,5.87L26.667,16.486L37.868,16.486Z" clip-rule="evenodd" fill-rule="evenodd" fill="#000000"/>
<path d="M33,30.667C28.405,30.667 24.667,34.405 24.667,39C24.667,43.595 28.405,47.333 33,47.333C37.595,47.333 41.333,43.595 41.333,39C41.333,34.405 37.595,30.667 33,30.667Z" stroke="#000000" stroke-width="0.833" stroke-miterlimit="3.999327"/>
<path d="M32.867,43.333C33.345,43.333 33.733,42.945 33.733,42.467L33.733,38.8C33.733,38.321 33.345,37.933 32.867,37.933C32.388,37.933 32,38.321 32,38.8L32,42.467C32,42.945 32.388,43.333 32.867,43.333Z" fill="#000000"/>
<path d="M32,36.2C32,36.679 32.388,37.067 32.867,37.067C33.345,37.067 33.733,36.679 33.733,36.2C33.733,35.721 33.345,35.333 32.867,35.333C32.388,35.333 32,35.721 32,36.2Z" fill="#000000"/>
</svg>
