<svg width="50" height="48" viewBox="0 0 50 48" fill="none" xmlns="http://www.w3.org/2000/svg" xmlns:xlink="http://www.w3.org/1999/xlink">
<path d="M0,23.683C0.378,23.017 0.947,22.81 1.701,22.837C3.009,22.884 4.322,22.843 5.631,22.852C6.52,22.859 7.021,23.272 7.035,23.984C7.051,24.732 6.547,25.171 5.611,25.181C4.274,25.193 2.938,25.165 1.602,25.193C0.877,25.209 0.33,24.98 0,24.313L0,23.681L0,23.683Z" fill="#000000"/>
<path d="M48,24.314C47.698,24.961 47.185,25.206 46.481,25.193C45.122,25.17 43.762,25.193 42.402,25.182C41.478,25.174 40.968,24.729 40.981,23.984C40.992,23.274 41.492,22.86 42.382,22.854C43.715,22.845 45.051,22.884 46.382,22.838C47.115,22.813 47.649,23.039 48.002,23.684L48.002,24.316L48,24.314Z" fill="#000000"/>
<path d="M24.393,0C24.968,0.379 25.183,0.904 25.165,1.597C25.128,2.911 25.165,4.227 25.15,5.541C25.141,6.436 24.716,6.942 24.013,6.946C23.308,6.949 22.875,6.447 22.864,5.549C22.846,4.234 22.879,2.919 22.848,1.605C22.831,0.919 23.048,0.39 23.608,0L24.395,0L24.393,0Z" fill="#000000"/>
<path d="M24.172,10.636C31.542,10.683 37.39,16.622 37.325,23.991C37.259,31.332 31.334,37.165 24.011,37.095C16.74,37.026 10.905,31.072 10.971,23.79C11.037,16.474 16.942,10.59 24.172,10.636ZM24.096,12.259L24.096,35.417C27.653,35.675 31.815,33.302 33.838,29.727C36.164,25.613 36.058,21.449 33.504,17.487C31.342,14.134 28.141,12.458 24.096,12.26L24.096,12.259Z" fill="#000000"/>
<path d="M25.195,44.534C25.195,45.268 25.207,46.002 25.19,46.734C25.172,47.446 24.694,47.968 24.071,47.997C23.396,48.027 22.898,47.602 22.88,46.832C22.84,45.313 22.842,43.792 22.88,42.273C22.898,41.519 23.43,41.032 24.054,41.062C24.688,41.094 25.18,41.672 25.195,42.41C25.202,42.777 25.195,43.144 25.195,43.511C25.195,43.852 25.195,44.193 25.195,44.532L25.195,44.534Z" fill="#000000"/>
<path d="M41.442,7.724C41.214,8.147 41.113,8.488 40.894,8.715C39.862,9.793 38.808,10.852 37.739,11.894C37.169,12.45 36.472,12.451 35.997,11.957C35.522,11.465 35.55,10.803 36.121,10.215C37.143,9.162 38.15,8.092 39.242,7.116C39.549,6.841 40.159,6.723 40.57,6.813C40.899,6.886 41.137,7.383 41.442,7.722L41.442,7.724Z" fill="#000000"/>
<path d="M7.746,41.474C7.447,41.22 7.014,41.02 6.882,40.696C6.747,40.365 6.751,39.771 6.964,39.537C8.092,38.298 9.279,37.108 10.502,35.962C10.982,35.512 11.599,35.605 12.049,36.101C12.471,36.567 12.502,37.154 12.077,37.605C10.963,38.789 9.806,39.93 8.64,41.064C8.451,41.247 8.136,41.301 7.746,41.474Z" fill="#000000"/>
<path d="M7.787,6.527C8.207,6.764 8.568,6.884 8.816,7.122C9.872,8.14 10.905,9.184 11.924,10.238C12.469,10.8 12.477,11.523 11.998,11.987C11.536,12.436 10.846,12.439 10.311,11.919C9.221,10.862 8.121,9.809 7.117,8.672C6.854,8.374 6.791,7.744 6.892,7.328C6.967,7.018 7.453,6.808 7.789,6.527L7.787,6.527Z" fill="#000000"/>
<path d="M41.409,40.298C41.164,40.606 40.975,41.061 40.658,41.181C40.303,41.315 39.687,41.307 39.439,41.081C38.219,39.973 37.054,38.8 35.932,37.591C35.495,37.119 35.55,36.497 36.039,36.035C36.527,35.574 37.122,35.56 37.597,36.014C38.753,37.118 39.87,38.26 40.978,39.411C41.162,39.602 41.225,39.91 41.409,40.298Z" fill="#000000"/>
</svg>
