<svg width="78" height="72" viewBox="0 0 78 72" fill="none" xmlns="http://www.w3.org/2000/svg" xmlns:xlink="http://www.w3.org/1999/xlink">
<line x1="-0.104" y1="31.67" x2="73.896" y2="31.67" stroke="#000000" stroke-width="4" stroke-miterlimit="3.999327" stroke-linecap="round" stroke-linejoin="round"/>
<path d="M44.288,1.781C42.692,0.253 40.16,0.308 38.632,1.904C37.105,3.499 37.159,6.031 38.755,7.559L44.288,1.781ZM73.896,35.67L76.663,38.559C77.451,37.805 77.896,36.761 77.896,35.67C77.896,34.579 77.451,33.535 76.663,32.781L73.896,35.67ZM38.755,63.781C37.159,65.309 37.105,67.841 38.632,69.436C40.16,71.032 42.692,71.087 44.288,69.559L38.755,63.781ZM38.755,7.559L71.13,38.559L76.663,32.781L44.288,1.781L38.755,7.559ZM71.13,32.781L38.755,63.781L44.288,69.559L76.663,38.559L71.13,32.781Z" fill="#000000"/>
</svg>
