<svg width="46" height="48" viewBox="0 0 46 48" fill="none" xmlns="http://www.w3.org/2000/svg" xmlns:xlink="http://www.w3.org/1999/xlink">
<path d="M21.187,44.25L8.667,44.25C5.265,44.25 2.504,41.479 2.504,38.087L2.504,7.913C2.504,4.511 5.275,1.75 8.667,1.75L21.391,1.75C22.155,1.75 22.766,1.139 22.766,0.375C22.766,-0.389 22.155,-1 21.391,-1L8.667,-1C3.747,-1 -0.246,3.003 -0.246,7.913L-0.246,38.087C-0.246,43.007 3.757,47 8.667,47L21.187,47C21.951,47 22.562,46.389 22.562,45.625C22.562,44.861 21.941,44.25 21.187,44.25Z" fill="#000000"/>
<path d="M43.842,22.032L35.102,13.292C34.562,12.752 33.696,12.752 33.156,13.292C32.617,13.832 32.617,14.698 33.156,15.238L39.554,21.635L11.652,21.635C10.888,21.635 10.277,22.246 10.277,23.01C10.277,23.774 10.888,24.386 11.652,24.386L39.554,24.386L33.156,30.783C32.617,31.323 32.617,32.189 33.156,32.728C33.421,32.993 33.778,33.136 34.124,33.136C34.471,33.136 34.827,33.003 35.092,32.728L43.832,23.988C44.382,23.438 44.382,22.562 43.842,22.032Z" fill="#000000"/>
</svg>
