<svg width="104" height="56" viewBox="0 0 104 56" fill="none" xmlns="http://www.w3.org/2000/svg" xmlns:xlink="http://www.w3.org/1999/xlink">
<path d="M-0.154,0.879L103.867,0.879L103.867,5.106L-0.154,5.106L-0.154,0.879ZM-0.154,9.321L103.867,9.321L103.867,13.547L-0.154,13.547L-0.154,9.321ZM-0.154,17.751L103.867,17.751L103.867,21.978L-0.154,21.978L-0.154,17.751ZM-0.154,26.182L103.867,26.182L103.867,30.409L-0.154,30.409L-0.154,26.182ZM-0.154,34.635L103.867,34.635L103.867,38.839L-0.154,38.839L-0.154,34.635ZM-0.154,43.054L103.867,43.054L103.867,47.281L-0.154,47.281L-0.154,43.054ZM-0.154,51.485L103.867,51.485L103.867,55.711L-0.154,55.711L-0.154,51.485Z" clip-rule="evenodd" fill-rule="evenodd" fill="#BD3D44"/>
<path d="M-0.154,5.106L103.867,5.106L103.867,9.321L-0.154,9.321L-0.154,5.106ZM-0.154,13.536L103.867,13.536L103.867,17.751L-0.154,17.751L-0.154,13.536ZM-0.154,21.967L103.867,21.967L103.867,26.193L-0.154,26.193L-0.154,21.967ZM-0.154,30.409L103.867,30.409L103.867,34.635L-0.154,34.635L-0.154,30.409ZM-0.154,38.839L103.867,38.839L103.867,43.066L-0.154,43.066L-0.154,38.839ZM-0.154,47.269L103.867,47.269L103.867,51.496L-0.154,51.496L-0.154,47.269Z" clip-rule="evenodd" fill-rule="evenodd" fill="#FFFFFF"/>
<rect  x="-0.154" y="0.879" width="41.608" height="29.53" fill="#192F5D"/>
<path d="M3.314,2.135L3.701,3.312L4.91,3.312L3.929,4.032L4.306,5.208L3.314,4.477L2.333,5.197L2.698,4.032L1.705,3.312L2.949,3.312L3.314,2.135ZM10.248,2.135L10.625,3.312L11.857,3.312L10.864,4.032L11.229,5.208L10.248,4.477L9.256,5.197L9.632,4.032L8.651,3.312L9.861,3.312L10.248,2.135ZM17.183,2.135L17.559,3.312L18.78,3.312L17.799,4.032L18.175,5.208L17.183,4.477L16.191,5.197L16.567,4.032L15.575,3.312L16.807,3.312L17.183,2.135ZM24.118,2.135L24.494,3.312L25.726,3.312L24.734,4.032L25.11,5.208L24.118,4.477L23.126,5.197L23.513,4.032L22.51,3.312L23.73,3.312L24.118,2.135ZM31.053,2.135L31.429,3.312L32.649,3.312L31.669,4.032L32.045,5.208L31.053,4.477L30.06,5.197L30.437,4.032L29.456,3.312L30.676,3.312L31.053,2.135ZM37.987,2.135L38.364,3.312L39.596,3.312L38.592,4.032L38.98,5.208L37.987,4.477L36.995,5.197L37.383,4.032L36.379,3.312L37.611,3.312L37.987,2.135ZM6.781,5.106L7.157,6.271L8.401,6.271L7.408,6.979L7.773,8.156L6.804,7.436L5.811,8.156L6.165,6.979L5.207,6.271L6.427,6.271L6.781,5.106ZM13.716,5.106L14.103,6.271L15.324,6.271L14.32,6.979L14.708,8.156L13.716,7.436L12.723,8.156L13.1,6.979L12.107,6.271L13.339,6.271L13.716,5.106ZM20.65,5.106L21.027,6.271L22.259,6.271L21.266,6.979L21.643,8.156L20.65,7.436L19.658,8.156L20.035,6.979L19.054,6.271L20.263,6.271L20.65,5.106ZM27.585,5.106L27.973,6.271L29.193,6.271L28.19,6.979L28.578,8.156L27.585,7.436L26.604,8.156L26.969,6.979L25.977,6.271L27.22,6.271L27.585,5.106ZM34.52,5.106L34.896,6.271L36.128,6.271L35.136,6.979L35.512,8.156L34.52,7.436L33.528,8.156L33.904,6.979L32.923,6.271L34.144,6.271L34.52,5.106ZM3.314,8.03L3.701,9.218L4.91,9.218L3.929,9.938L4.306,11.103L3.314,10.383L2.333,11.103L2.698,9.938L1.705,9.218L2.949,9.218L3.314,8.03ZM10.248,8.03L10.625,9.218L11.857,9.218L10.864,9.938L11.229,11.103L10.248,10.383L9.256,11.103L9.632,9.926L8.651,9.207L9.861,9.207L10.248,8.03ZM17.183,8.03L17.559,9.207L18.78,9.207L17.799,9.926L18.175,11.091L17.183,10.372L16.191,11.091L16.567,9.915L15.575,9.195L16.807,9.195L17.183,8.03ZM24.118,8.03L24.494,9.207L25.726,9.207L24.734,9.926L25.11,11.091L24.118,10.372L23.126,11.091L23.513,9.915L22.51,9.195L23.73,9.195L24.118,8.03ZM31.053,8.03L31.429,9.207L32.649,9.207L31.669,9.926L32.045,11.091L31.053,10.372L30.06,11.091L30.437,9.915L29.456,9.195L30.676,9.195L31.053,8.03ZM37.987,8.03L38.364,9.207L39.596,9.207L38.592,9.926L38.98,11.091L37.987,10.372L36.995,11.091L37.383,9.915L36.379,9.195L37.611,9.195L37.987,8.03ZM6.781,11L7.157,12.165L8.401,12.165L7.408,12.885L7.785,14.062L6.792,13.33L5.8,14.05L6.176,12.885L5.196,12.165L6.416,12.165L6.781,11ZM13.716,11L14.103,12.165L15.324,12.165L14.32,12.885L14.708,14.062L13.716,13.33L12.723,14.05L13.1,12.885L12.107,12.165L13.339,12.165L13.716,11ZM20.65,11L21.027,12.165L22.259,12.165L21.266,12.885L21.643,14.062L20.65,13.33L19.658,14.05L20.035,12.885L19.054,12.165L20.263,12.165L20.65,11ZM27.585,11L27.973,12.165L29.193,12.165L28.201,12.885L28.578,14.062L27.585,13.33L26.604,14.05L26.969,12.885L25.977,12.165L27.22,12.165L27.585,11ZM34.52,11L34.896,12.165L36.128,12.165L35.136,12.885L35.512,14.062L34.52,13.33L33.528,14.05L33.904,12.885L32.923,12.165L34.144,12.165L34.52,11ZM3.314,13.959L3.701,15.124L4.91,15.124L3.929,15.844L4.306,17.02L3.314,16.289L2.333,17.009L2.698,15.844L1.705,15.124L2.949,15.124L3.314,13.959ZM10.248,13.959L10.625,15.124L11.857,15.124L10.864,15.844L11.229,17.009L10.248,16.289L9.256,17.009L9.632,15.844L8.651,15.124L9.861,15.124L10.248,13.959ZM17.183,13.959L17.559,15.124L18.78,15.124L17.799,15.844L18.175,17.02L17.183,16.289L16.191,17.009L16.567,15.844L15.575,15.124L16.807,15.124L17.183,13.959ZM24.118,13.959L24.494,15.124L25.726,15.124L24.734,15.844L25.11,17.02L24.118,16.289L23.126,17.009L23.513,15.844L22.51,15.124L23.73,15.124L24.118,13.959ZM31.053,13.959L31.429,15.124L32.649,15.124L31.669,15.844L32.045,17.02L31.053,16.289L30.06,17.009L30.437,15.844L29.456,15.124L30.676,15.124L31.053,13.959ZM37.987,13.959L38.364,15.124L39.596,15.124L38.592,15.844L38.98,17.02L37.987,16.289L36.995,17.009L37.371,15.844L36.368,15.124L37.6,15.124L37.987,13.959ZM6.781,16.906L7.157,18.083L8.401,18.083L7.408,18.791L7.785,19.967L6.792,19.236L5.8,19.967L6.176,18.791L5.196,18.071L6.416,18.071L6.781,16.906ZM13.716,16.906L14.103,18.083L15.324,18.083L14.32,18.791L14.708,19.967L13.716,19.236L12.723,19.967L13.1,18.791L12.107,18.071L13.339,18.071L13.716,16.906ZM20.65,16.906L21.027,18.083L22.259,18.083L21.266,18.791L21.643,19.967L20.65,19.236L19.658,19.967L20.035,18.791L19.054,18.071L20.263,18.071L20.65,16.906ZM27.585,16.906L27.973,18.083L29.193,18.083L28.201,18.791L28.578,19.967L27.585,19.236L26.604,19.967L26.969,18.791L25.977,18.071L27.22,18.071L27.585,16.906ZM34.52,16.906L34.896,18.083L36.128,18.083L35.136,18.791L35.512,19.967L34.52,19.236L33.528,19.967L33.904,18.791L32.923,18.071L34.144,18.071L34.52,16.906ZM3.314,19.853L3.701,21.03L4.91,21.03L3.929,21.75L4.306,22.903L3.314,22.195L2.333,22.903L2.698,21.738L1.705,21.018L2.949,21.018L3.314,19.853ZM10.248,19.853L10.625,21.03L11.857,21.03L10.864,21.75L11.241,22.903L10.248,22.195L9.256,22.903L9.644,21.738L8.651,21.018L9.861,21.018L10.248,19.853ZM17.183,19.853L17.559,21.03L18.78,21.03L17.799,21.75L18.175,22.903L17.183,22.195L16.191,22.903L16.567,21.738L15.575,21.018L16.807,21.018L17.183,19.853ZM24.118,19.853L24.494,21.03L25.726,21.03L24.734,21.75L25.11,22.903L24.118,22.195L23.126,22.903L23.513,21.738L22.51,21.018L23.73,21.018L24.118,19.853ZM31.053,19.853L31.429,21.03L32.649,21.03L31.669,21.75L32.045,22.903L31.053,22.195L30.06,22.903L30.437,21.738L29.456,21.018L30.676,21.018L31.053,19.853ZM37.987,19.853L38.364,21.03L39.596,21.03L38.592,21.75L38.98,22.903L37.987,22.195L36.995,22.903L37.383,21.738L36.379,21.018L37.611,21.018L37.987,19.853ZM6.781,22.812L7.157,23.977L8.401,23.977L7.408,24.697L7.785,25.873L6.792,25.142L5.8,25.862L6.176,24.697L5.196,23.977L6.416,23.977L6.781,22.812ZM13.716,22.812L14.103,23.977L15.324,23.977L14.32,24.697L14.708,25.873L13.716,25.142L12.723,25.862L13.1,24.697L12.107,23.977L13.339,23.977L13.716,22.812ZM20.65,22.812L21.027,23.977L22.259,23.977L21.266,24.697L21.643,25.873L20.65,25.142L19.658,25.862L20.035,24.697L19.054,23.977L20.263,23.977L20.65,22.812ZM27.585,22.812L27.973,23.977L29.193,23.977L28.201,24.697L28.578,25.873L27.585,25.142L26.604,25.862L26.969,24.697L25.977,23.977L27.22,23.977L27.585,22.812ZM34.52,22.812L34.896,23.977L36.128,23.977L35.136,24.697L35.512,25.873L34.52,25.142L33.528,25.862L33.904,24.697L32.923,23.977L34.144,23.977L34.52,22.812ZM3.314,25.77L3.701,26.936L4.91,26.936L3.929,27.655L4.306,28.821L3.314,28.101L2.333,28.821L2.698,27.644L1.705,26.924L2.949,26.924L3.314,25.77ZM10.248,25.77L10.625,26.936L11.857,26.936L10.864,27.655L11.241,28.821L10.248,28.101L9.256,28.821L9.644,27.644L8.651,26.924L9.861,26.924L10.248,25.77ZM17.183,25.77L17.559,26.936L18.78,26.936L17.822,27.655L18.198,28.821L17.206,28.101L16.214,28.821L16.59,27.644L15.598,26.924L16.829,26.924L17.183,25.77ZM24.118,25.77L24.494,26.936L25.726,26.936L24.734,27.655L25.11,28.821L24.118,28.101L23.126,28.821L23.513,27.644L22.51,26.924L23.73,26.924L24.118,25.77ZM31.053,25.77L31.429,26.936L32.649,26.936L31.669,27.655L32.045,28.821L31.053,28.101L30.06,28.821L30.437,27.644L29.456,26.924L30.676,26.924L31.053,25.77ZM37.987,25.77L38.364,26.936L39.596,26.936L38.592,27.655L38.98,28.821L37.987,28.101L36.995,28.821L37.383,27.644L36.379,26.924L37.611,26.924L37.987,25.77Z" clip-rule="evenodd" fill-rule="evenodd" fill="#FFFFFF"/>
</svg>
