<svg width="44" height="44" viewBox="0 0 44 44" fill="none" xmlns="http://www.w3.org/2000/svg" xmlns:xlink="http://www.w3.org/1999/xlink">
<path d="M16.364,40.095C16.364,40.099 16.364,40.083 16.384,40.061C16.395,40.05 16.414,40.035 16.443,40.022C16.474,40.008 16.51,40 16.545,40L16.545,44C18.741,44 20.364,42.163 20.364,40.095L16.364,40.095ZM16.545,40C16.581,40 16.617,40.008 16.648,40.022C16.677,40.035 16.696,40.05 16.707,40.061C16.727,40.083 16.727,40.099 16.727,40.095L12.727,40.095C12.727,42.163 14.35,44 16.545,44L16.545,40ZM16.727,40.095C16.727,40.091 16.727,40.107 16.707,40.129C16.696,40.14 16.677,40.156 16.648,40.169C16.617,40.182 16.581,40.19 16.545,40.19L16.545,36.19C14.35,36.19 12.727,38.027 12.727,40.095L16.727,40.095ZM16.545,40.19C16.51,40.19 16.474,40.182 16.443,40.169C16.414,40.156 16.395,40.14 16.384,40.129C16.364,40.107 16.364,40.091 16.364,40.095L20.364,40.095C20.364,38.027 18.741,36.19 16.545,36.19L16.545,40.19Z" fill="#A8BACD"/>
<path d="M36.364,40.095C36.364,40.099 36.364,40.083 36.384,40.061C36.395,40.05 36.414,40.035 36.443,40.022C36.474,40.008 36.51,40 36.545,40L36.545,44C38.741,44 40.364,42.163 40.364,40.095L36.364,40.095ZM36.545,40C36.581,40 36.617,40.008 36.648,40.022C36.677,40.035 36.696,40.05 36.707,40.061C36.727,40.083 36.727,40.099 36.727,40.095L32.727,40.095C32.727,42.163 34.35,44 36.545,44L36.545,40ZM36.727,40.095C36.727,40.091 36.727,40.107 36.707,40.129C36.696,40.14 36.677,40.156 36.648,40.169C36.617,40.182 36.581,40.19 36.545,40.19L36.545,36.19C34.35,36.19 32.727,38.027 32.727,40.095L36.727,40.095ZM36.545,40.19C36.51,40.19 36.474,40.182 36.443,40.169C36.414,40.156 36.395,40.14 36.384,40.129C36.364,40.107 36.364,40.091 36.364,40.095L40.364,40.095C40.364,38.027 38.741,36.19 36.545,36.19L36.545,40.19Z" fill="#A8BACD"/>
<path d="M2,0C0.895,0 0,0.895 0,2C0,3.105 0.895,4 2,4L2,0ZM9.273,2L11.237,1.625C11.057,0.682 10.233,0 9.273,0L9.273,2ZM14.145,27.505L16.11,27.132L16.11,27.129L14.145,27.505ZM17.782,30.571L17.782,28.571C17.768,28.571 17.755,28.572 17.742,28.572L17.782,30.571ZM35.455,30.571L35.495,28.572C35.481,28.572 35.468,28.571 35.455,28.571L35.455,30.571ZM39.091,27.505L41.056,27.877L41.059,27.863L39.091,27.505ZM42,11.524L43.968,11.882C44.074,11.298 43.916,10.698 43.536,10.242C43.156,9.787 42.593,9.524 42,9.524L42,11.524ZM11.091,9.524C9.986,9.524 9.091,10.419 9.091,11.524C9.091,12.628 9.986,13.524 11.091,13.524L11.091,9.524ZM2,4L9.273,4L9.273,0L2,0L2,4ZM7.308,2.375L12.181,27.88L16.11,27.129L11.237,1.625L7.308,2.375ZM12.18,27.877C12.693,30.581 15.02,32.627 17.822,32.571L17.742,28.572C17.022,28.586 16.284,28.049 16.11,27.132L12.18,27.877ZM17.782,32.571L35.455,32.571L35.455,28.571L17.782,28.571L17.782,32.571ZM35.414,32.571C38.217,32.627 40.543,30.581 41.056,27.877L37.126,27.132C36.952,28.049 36.215,28.586 35.495,28.572L35.414,32.571ZM41.059,27.863L43.968,11.882L40.032,11.166L37.123,27.147L41.059,27.863ZM42,9.524L11.091,9.524L11.091,13.524L42,13.524L42,9.524Z" fill="#A8BACD"/>
</svg>
