<svg width="268" height="262" viewBox="0 0 268 262" fill="none" xmlns="http://www.w3.org/2000/svg" xmlns:xlink="http://www.w3.org/1999/xlink">
<path d="M133.649,1C60.508,1 1,58.863 1,130.503L11,130.503C11,64.62 65.794,11 133.649,11L133.649,1ZM1,130.503C1,202.141 60.508,260.006 133.649,260.006L133.649,250.006C65.794,250.006 11,196.385 11,130.503L1,130.503ZM133.649,260.006C206.79,260.006 266.298,202.141 266.298,130.503L256.298,130.503C256.298,196.385 201.505,250.006 133.649,250.006L133.649,260.006ZM266.298,130.503C266.298,58.863 206.79,1 133.649,1L133.649,11C201.505,11 256.298,64.62 256.298,130.503L266.298,130.503Z" fill="#000000"/>
<path d="M31.091,206.378C29.362,208.531 29.705,211.678 31.858,213.407C34.011,215.136 37.159,214.792 38.888,212.639L31.091,206.378ZM228.413,212.639C230.142,214.792 233.289,215.136 235.441,213.407C237.595,211.678 237.939,208.53 236.209,206.377L228.413,212.639ZM34.989,209.508C38.888,212.639 38.886,212.641 38.884,212.643C38.884,212.644 38.882,212.646 38.882,212.647C38.88,212.649 38.879,212.65 38.878,212.651C38.877,212.653 38.877,212.653 38.879,212.65C38.883,212.646 38.893,212.633 38.911,212.612C38.946,212.569 39.009,212.495 39.1,212.39C39.281,212.181 39.575,211.852 39.984,211.419C40.801,210.554 42.078,209.276 43.84,207.722C47.364,204.613 52.825,200.398 60.426,196.161C75.599,187.703 99.43,179.079 133.649,179.079L133.649,169.079C97.662,169.079 72.162,178.17 55.557,187.426C47.27,192.046 41.229,196.689 37.224,200.223C35.221,201.99 33.727,203.48 32.714,204.552C32.208,205.089 31.822,205.52 31.552,205.83C31.417,205.985 31.312,206.11 31.235,206.202C31.197,206.248 31.166,206.286 31.142,206.315C31.13,206.33 31.119,206.342 31.111,206.353C31.107,206.358 31.103,206.363 31.099,206.367C31.098,206.369 31.096,206.371 31.095,206.373C31.093,206.375 31.091,206.378 34.989,209.508ZM133.649,179.079C167.869,179.079 191.7,187.703 206.873,196.161C214.475,200.398 219.936,204.613 223.46,207.722C225.222,209.276 226.499,210.554 227.317,211.42C227.725,211.852 228.019,212.181 228.201,212.39C228.291,212.495 228.354,212.569 228.389,212.612C228.407,212.633 228.418,212.646 228.422,212.65C228.423,212.653 228.424,212.653 228.422,212.651C228.421,212.65 228.42,212.649 228.419,212.647C228.418,212.646 228.416,212.644 228.416,212.643C228.414,212.641 228.413,212.639 232.311,209.508C236.209,206.377 236.207,206.375 236.205,206.372C236.205,206.371 236.203,206.369 236.201,206.367C236.197,206.363 236.193,206.358 236.189,206.353C236.181,206.342 236.171,206.33 236.159,206.315C236.135,206.286 236.103,206.248 236.065,206.202C235.989,206.11 235.883,205.985 235.747,205.83C235.479,205.52 235.093,205.089 234.586,204.552C233.573,203.48 232.079,201.99 230.076,200.223C226.071,196.689 220.03,192.046 211.742,187.426C195.137,178.17 169.637,169.079 133.649,169.079L133.649,179.079Z" fill="#000000"/>
<path d="M133.649,135.503C157.443,135.503 176.944,116.659 176.944,93.152L166.944,93.152C166.944,110.902 152.156,125.503 133.649,125.503L133.649,135.503ZM176.944,93.152C176.944,69.645 157.443,50.801 133.649,50.801L133.649,60.801C152.156,60.801 166.944,75.402 166.944,93.152L176.944,93.152ZM133.649,50.801C109.856,50.801 90.354,69.645 90.354,93.152L100.354,93.152C100.354,75.402 115.142,60.801 133.649,60.801L133.649,50.801ZM90.354,93.152C90.354,116.659 109.856,135.503 133.649,135.503L133.649,125.503C115.142,125.503 100.354,110.902 100.354,93.152L90.354,93.152Z" fill="#000000"/>
</svg>
