<svg width="40" height="36" viewBox="0 0 40 36" fill="none" xmlns="http://www.w3.org/2000/svg" xmlns:xlink="http://www.w3.org/1999/xlink">
<path d="M35.224,4.829L33.796,6.229L33.797,6.23L35.224,4.829ZM21.825,4.829L23.253,6.23L23.253,6.229L21.825,4.829ZM20,6.69L18.572,8.09C18.948,8.474 19.463,8.69 20,8.69C20.537,8.69 21.051,8.474 21.427,8.09L20,6.69ZM18.174,4.829L19.602,3.428L19.602,3.428L18.174,4.829ZM4.775,18.484L6.203,17.084L6.203,17.084L4.775,18.484ZM6.601,20.345L5.173,21.746L5.173,21.746L6.601,20.345ZM20,34L18.572,35.401C18.948,35.784 19.463,36 20,36C20.537,36 21.051,35.784 21.427,35.401L20,34ZM33.398,20.345L34.826,21.746L34.826,21.746L33.398,20.345ZM35.224,18.484L33.797,17.083L33.797,17.084L35.224,18.484ZM36.652,3.429C34.503,1.238 31.581,0 28.525,0L28.525,4C30.495,4 32.392,4.797 33.796,6.229L36.652,3.429ZM28.525,0C25.469,0 22.546,1.238 20.397,3.429L23.253,6.229C24.657,4.797 26.555,4 28.525,4L28.525,0ZM20.398,3.428L18.572,5.289L21.427,8.09L23.253,6.23L20.398,3.428ZM21.427,5.289L19.602,3.428L16.746,6.23L18.572,8.09L21.427,5.289ZM19.602,3.428C15.117,-1.141 7.831,-1.141 3.347,3.428L6.203,6.23C9.119,3.258 13.83,3.258 16.746,6.23L19.602,3.428ZM3.347,3.428C-1.116,7.977 -1.116,15.336 3.347,19.885L6.203,17.084C3.266,14.091 3.266,9.223 6.203,6.23L3.347,3.428ZM3.347,19.885L5.173,21.746L8.028,18.944L6.203,17.084L3.347,19.885ZM5.173,21.746L18.572,35.401L21.427,32.599L8.028,18.944L5.173,21.746ZM21.427,35.401L34.826,21.746L31.971,18.944L18.572,32.599L21.427,35.401ZM34.826,21.746L36.652,19.885L33.797,17.084L31.971,18.944L34.826,21.746ZM36.651,19.885C38.8,17.697 40,14.736 40,11.657L36,11.657C36,13.699 35.203,15.651 33.797,17.083L36.651,19.885ZM40,11.657C40,8.577 38.8,5.616 36.651,3.428L33.797,6.23C35.203,7.663 36,9.614 36,11.657L40,11.657Z" fill="#A8BACD"/>
</svg>
