<svg width="32" height="28" viewBox="0 0 32 28" fill="none" xmlns="http://www.w3.org/2000/svg" xmlns:xlink="http://www.w3.org/1999/xlink">
<path d="M15.414,0.586C16.195,1.367 16.195,2.633 15.414,3.414L6.828,12L30,12C31.105,12 32,12.895 32,14C32,15.105 31.105,16 30,16L6.828,16L15.414,24.586C16.195,25.367 16.195,26.633 15.414,27.414C14.633,28.195 13.367,28.195 12.586,27.414L0.586,15.414C0.211,15.039 0,14.53 0,14C0,13.47 0.211,12.961 0.586,12.586L12.586,0.586C13.367,-0.195 14.633,-0.195 15.414,0.586Z" clip-rule="evenodd" fill-rule="evenodd" fill="#000000"/>
</svg>
