<svg width="40" height="40" viewBox="0 0 40 40" fill="none" xmlns="http://www.w3.org/2000/svg" xmlns:xlink="http://www.w3.org/1999/xlink">
<path d="M38,22C39.105,22 40,21.105 40,20C40,18.895 39.105,18 38,18L38,22ZM2,18C0.895,18 0,18.895 0,20C0,21.105 0.895,22 2,22L2,18ZM38,18L2,18L2,22L38,22L38,18Z" fill="#303841"/>
<path d="M18.586,39.414C19.367,40.195 20.633,40.195 21.414,39.414C22.195,38.633 22.195,37.367 21.414,36.586L18.586,39.414ZM2,20L0.586,18.586C-0.195,19.367 -0.195,20.633 0.586,21.414L2,20ZM21.414,3.414C22.195,2.633 22.195,1.367 21.414,0.586C20.633,-0.195 19.367,-0.195 18.586,0.586L21.414,3.414ZM21.414,36.586L3.414,18.586L0.586,21.414L18.586,39.414L21.414,36.586ZM3.414,21.414L21.414,3.414L18.586,0.586L0.586,18.586L3.414,21.414Z" fill="#303841"/>
</svg>
