<svg width="40" height="32" viewBox="0 0 40 32" fill="none" xmlns="http://www.w3.org/2000/svg" xmlns:xlink="http://www.w3.org/1999/xlink">
<path d="M38.222,3.556C38.222,2.451 37.327,1.556 36.222,1.556C35.118,1.556 34.222,2.451 34.222,3.556L38.222,3.556ZM36.222,12.889L36.222,14.889C37.327,14.889 38.222,13.993 38.222,12.889L36.222,12.889ZM26.889,10.889C25.784,10.889 24.889,11.784 24.889,12.889C24.889,13.993 25.784,14.889 26.889,14.889L26.889,10.889ZM34.222,3.556L34.222,12.889L38.222,12.889L38.222,3.556L34.222,3.556ZM36.222,10.889L26.889,10.889L26.889,14.889L36.222,14.889L36.222,10.889Z" fill="#A8BACD"/>
<path d="M0,28.444C0,29.549 0.895,30.444 2,30.444C3.105,30.444 4,29.549 4,28.444L0,28.444ZM2,19.111L2,17.111C0.895,17.111 0,18.007 0,19.111L2,19.111ZM11.333,21.111C12.438,21.111 13.333,20.216 13.333,19.111C13.333,18.007 12.438,17.111 11.333,17.111L11.333,21.111ZM4,28.444L4,19.111L0,19.111L0,28.444L4,28.444ZM2,21.111L11.333,21.111L11.333,17.111L2,17.111L2,21.111Z" fill="#A8BACD"/>
<path d="M4.019,10.666C3.651,11.707 4.196,12.85 5.237,13.219C6.279,13.587 7.421,13.042 7.79,12.001L4.019,10.666ZM29.004,6.107L27.59,7.521C27.605,7.535 27.62,7.55 27.635,7.564L29.004,6.107ZM34.853,14.346C35.658,15.103 36.923,15.063 37.68,14.258C38.436,13.453 38.397,12.188 37.592,11.431L34.853,14.346ZM3.37,17.654C2.565,16.897 1.299,16.937 0.542,17.742C-0.214,18.547 -0.175,19.812 0.63,20.569L3.37,17.654ZM9.218,25.893L10.632,24.479C10.618,24.465 10.603,24.45 10.587,24.436L9.218,25.893ZM34.203,21.334C34.572,20.293 34.026,19.15 32.985,18.781C31.944,18.413 30.801,18.958 30.432,19.999L34.203,21.334ZM7.79,12.001C9.164,8.116 12.436,5.209 16.454,4.3L15.572,0.398C10.213,1.611 5.852,5.487 4.019,10.666L7.79,12.001ZM16.454,4.3C20.473,3.39 24.677,4.606 27.59,7.521L30.419,4.693C26.535,0.807 20.93,-0.814 15.572,0.398L16.454,4.3ZM27.635,7.564L34.853,14.346L37.592,11.431L30.374,4.649L27.635,7.564ZM0.63,20.569L7.848,27.351L10.587,24.436L3.37,17.654L0.63,20.569ZM7.803,27.307C11.687,31.193 17.292,32.814 22.651,31.602L21.768,27.7C17.749,28.61 13.545,27.394 10.632,24.479L7.803,27.307ZM22.651,31.602C28.009,30.389 32.371,26.513 34.203,21.334L30.432,19.999C29.058,23.884 25.787,26.791 21.768,27.7L22.651,31.602Z" fill="#A8BACD"/>
</svg>
