<svg width="32" height="32" viewBox="0 0 32 32" fill="none" xmlns="http://www.w3.org/2000/svg" xmlns:xlink="http://www.w3.org/1999/xlink">
<path d="M18,2C18,0.895 17.105,0 16,0C14.895,0 14,0.895 14,2L18,2ZM14,30C14,31.105 14.895,32 16,32C17.105,32 18,31.105 18,30L14,30ZM14,2L14,30L18,30L18,2L14,2Z" fill="#A8BACD"/>
<path d="M31.414,17.414C32.195,16.633 32.195,15.367 31.414,14.586C30.633,13.805 29.367,13.805 28.586,14.586L31.414,17.414ZM16,30L14.586,31.414C15.367,32.195 16.633,32.195 17.414,31.414L16,30ZM3.414,14.586C2.633,13.805 1.367,13.805 0.586,14.586C-0.195,15.367 -0.195,16.633 0.586,17.414L3.414,14.586ZM28.586,14.586L14.586,28.586L17.414,31.414L31.414,17.414L28.586,14.586ZM17.414,28.586L3.414,14.586L0.586,17.414L14.586,31.414L17.414,28.586Z" fill="#A8BACD"/>
</svg>
