<svg width="26" height="44" viewBox="0 0 26 44" fill="none" xmlns="http://www.w3.org/2000/svg" xmlns:xlink="http://www.w3.org/1999/xlink">
<path d="M14.909,2C14.909,0.895 14.014,0 12.909,0C11.805,0 10.909,0.895 10.909,2L14.909,2ZM10.909,42C10.909,43.105 11.805,44 12.909,44C14.014,44 14.909,43.105 14.909,42L10.909,42ZM10.909,2L10.909,42L14.909,42L14.909,2L10.909,2Z" fill="#A8BACD"/>
<path d="M22,11.273C23.105,11.273 24,10.377 24,9.273C24,8.168 23.105,7.273 22,7.273L22,11.273ZM8.364,9.273L8.364,11.273L8.364,9.273ZM17.455,22L17.455,20L17.455,20L17.455,22ZM17.455,34.727L17.455,36.727L17.455,36.727L17.455,34.727ZM2,32.727C0.895,32.727 0,33.623 0,34.727C0,35.832 0.895,36.727 2,36.727L2,32.727ZM22,7.273L8.364,7.273L8.364,11.273L22,11.273L22,7.273ZM8.364,7.273C3.745,7.273 0,11.017 0,15.636L4,15.636C4,13.226 5.954,11.273 8.364,11.273L8.364,7.273ZM0,15.636C0,20.255 3.745,24 8.364,24L8.364,20C5.954,20 4,18.046 4,15.636L0,15.636ZM8.364,24L17.455,24L17.455,20L8.364,20L8.364,24ZM17.455,24C19.865,24 21.818,25.954 21.818,28.364L25.818,28.364C25.818,23.745 22.074,20 17.455,20L17.455,24ZM21.818,28.364C21.818,30.774 19.865,32.727 17.455,32.727L17.455,36.727C22.074,36.727 25.818,32.983 25.818,28.364L21.818,28.364ZM17.455,32.727L2,32.727L2,36.727L17.455,36.727L17.455,32.727Z" fill="#A8BACD"/>
</svg>
