<svg width="38" height="40" viewBox="0 0 38 40" fill="none" xmlns="http://www.w3.org/2000/svg" xmlns:xlink="http://www.w3.org/1999/xlink">
<path d="M2,14.6L0.772,13.021C0.285,13.4 0,13.983 0,14.6L2,14.6ZM18.2,2L19.428,0.421C18.706,-0.14 17.694,-0.14 16.972,0.421L18.2,2ZM34.4,14.6L36.4,14.6C36.4,13.983 36.115,13.4 35.628,13.021L34.4,14.6ZM3.228,16.179L19.428,3.579L16.972,0.421L0.772,13.021L3.228,16.179ZM16.972,3.579L33.172,16.179L35.628,13.021L19.428,0.421L16.972,3.579ZM32.4,14.6L32.4,34.4L36.4,34.4L36.4,14.6L32.4,14.6ZM32.4,34.4C32.4,35.284 31.684,36 30.8,36L30.8,40C33.893,40 36.4,37.493 36.4,34.4L32.4,34.4ZM30.8,36L5.6,36L5.6,40L30.8,40L30.8,36ZM5.6,36C4.716,36 4,35.284 4,34.4L0,34.4C0,37.493 2.507,40 5.6,40L5.6,36ZM4,34.4L4,14.6L0,14.6L0,34.4L4,34.4Z" fill="#A8BACD"/>
<path d="M10.8,38C10.8,39.105 11.695,40 12.8,40C13.905,40 14.8,39.105 14.8,38L10.8,38ZM12.8,20L12.8,18C11.695,18 10.8,18.895 10.8,20L12.8,20ZM23.6,20L25.6,20C25.6,18.895 24.705,18 23.6,18L23.6,20ZM21.6,38C21.6,39.105 22.495,40 23.6,40C24.705,40 25.6,39.105 25.6,38L21.6,38ZM14.8,38L14.8,20L10.8,20L10.8,38L14.8,38ZM12.8,22L23.6,22L23.6,18L12.8,18L12.8,22ZM21.6,20L21.6,38L25.6,38L25.6,20L21.6,20Z" fill="#A8BACD"/>
</svg>
