<svg width="42" height="40" viewBox="0 0 42 40" fill="none" xmlns="http://www.w3.org/2000/svg" xmlns:xlink="http://www.w3.org/1999/xlink">
<rect  x="0" y="8" width="40" height="28" rx="4" stroke="#A8BACD" stroke-width="2" stroke-miterlimit="3.999327" stroke-linecap="round" stroke-linejoin="round"/>
<path d="M28,38C28,39.105 28.895,40 30,40C31.105,40 32,39.105 32,38L28,38ZM12,38C12,39.105 12.895,40 14,40C15.105,40 16,39.105 16,38L12,38ZM32,38L32,6L28,6L28,38L32,38ZM32,6C32,2.686 29.314,0 26,0L26,4C27.105,4 28,4.895 28,6L32,6ZM26,0L18,0L18,4L26,4L26,0ZM18,0C14.686,0 12,2.686 12,6L16,6C16,4.895 16.895,4 18,4L18,0ZM12,6L12,38L16,38L16,6L12,6Z" fill="#A8BACD"/>
</svg>
