<svg width="34" height="40" viewBox="0 0 34 40" fill="none" xmlns="http://www.w3.org/2000/svg" xmlns:xlink="http://www.w3.org/1999/xlink">
<path d="M20,2L21.414,0.586C21.039,0.211 20.53,0 20,0L20,2ZM30.8,12.8L32.8,12.8C32.8,12.27 32.589,11.761 32.214,11.386L30.8,12.8ZM20,0L5.6,0L5.6,4L20,4L20,0ZM5.6,0C2.507,0 0,2.507 0,5.6L4,5.6C4,4.716 4.716,4 5.6,4L5.6,0ZM0,5.6L0,34.4L4,34.4L4,5.6L0,5.6ZM0,34.4C0,37.493 2.507,40 5.6,40L5.6,36C4.716,36 4,35.284 4,34.4L0,34.4ZM5.6,40L27.2,40L27.2,36L5.6,36L5.6,40ZM27.2,40C30.293,40 32.8,37.493 32.8,34.4L28.8,34.4C28.8,35.284 28.084,36 27.2,36L27.2,40ZM32.8,34.4L32.8,12.8L28.8,12.8L28.8,34.4L32.8,34.4ZM32.214,11.386L21.414,0.586L18.586,3.414L29.386,14.214L32.214,11.386Z" fill="#A8BACD"/>
<path d="M22,2C22,0.895 21.105,0 20,0C18.895,0 18,0.895 18,2L22,2ZM20,12.8L18,12.8C18,13.905 18.895,14.8 20,14.8L20,12.8ZM30.8,14.8C31.905,14.8 32.8,13.905 32.8,12.8C32.8,11.695 31.905,10.8 30.8,10.8L30.8,14.8ZM18,2L18,12.8L22,12.8L22,2L18,2ZM20,14.8L30.8,14.8L30.8,10.8L20,10.8L20,14.8Z" fill="#A8BACD"/>
<path d="M23.6,23.8C24.705,23.8 25.6,22.905 25.6,21.8C25.6,20.695 24.705,19.8 23.6,19.8L23.6,23.8ZM9.2,19.8C8.095,19.8 7.2,20.695 7.2,21.8C7.2,22.905 8.095,23.8 9.2,23.8L9.2,19.8ZM23.6,19.8L9.2,19.8L9.2,23.8L23.6,23.8L23.6,19.8Z" fill="#A8BACD"/>
<path d="M23.6,31C24.705,31 25.6,30.105 25.6,29C25.6,27.895 24.705,27 23.6,27L23.6,31ZM9.2,27C8.095,27 7.2,27.895 7.2,29C7.2,30.105 8.095,31 9.2,31L9.2,27ZM23.6,27L9.2,27L9.2,31L23.6,31L23.6,27Z" fill="#A8BACD"/>
<path d="M12.8,16.6C13.905,16.6 14.8,15.705 14.8,14.6C14.8,13.495 13.905,12.6 12.8,12.6L12.8,16.6ZM9.2,12.6C8.095,12.6 7.2,13.495 7.2,14.6C7.2,15.705 8.095,16.6 9.2,16.6L9.2,12.6ZM12.8,12.6L11,12.6L11,16.6L12.8,16.6L12.8,12.6ZM11,12.6L9.2,12.6L9.2,16.6L11,16.6L11,12.6Z" fill="#A8BACD"/>
</svg>
