<svg width="58" height="24" viewBox="0 0 58 24" fill="none" xmlns="http://www.w3.org/2000/svg" xmlns:xlink="http://www.w3.org/1999/xlink">
<path d="M7.734,22.178C13.11,22.178 16.304,17.974 16.304,10.855C16.304,8.174 15.791,5.918 14.81,4.175C13.389,1.465 10.942,0 7.852,0C3.252,0 0,3.091 0,7.427C0,11.499 2.93,14.458 6.958,14.458C9.434,14.458 11.44,13.301 12.437,11.294L12.48,11.294C12.48,11.294 12.539,11.294 12.554,11.294C12.583,11.294 12.686,11.294 12.686,11.294C12.686,16.128 10.854,19.014 7.764,19.014C5.947,19.014 4.541,18.018 4.058,16.421L0.293,16.421C0.923,19.893 3.867,22.178 7.734,22.178ZM7.866,11.455C5.435,11.455 3.706,9.727 3.706,7.31C3.706,4.951 5.522,3.149 7.881,3.149C10.239,3.149 12.056,4.98 12.056,7.368C12.056,9.727 10.283,11.455 7.866,11.455Z" fill="#000000"/>
<path d="M22.486,21.973C23.878,21.973 24.83,20.977 24.83,19.658C24.83,18.325 23.878,17.344 22.486,17.344C21.109,17.344 20.142,18.325 20.142,19.658C20.142,20.977 21.109,21.973 22.486,21.973ZM22.486,10.986C23.878,10.986 24.83,10.005 24.83,8.687C24.83,7.354 23.878,6.372 22.486,6.372C21.109,6.372 20.142,7.354 20.142,8.687C20.142,10.005 21.109,10.986 22.486,10.986Z" fill="#000000"/>
<path d="M38.541,21.665L42.159,21.665L42.159,17.725L45.016,17.725L45.016,14.531L42.159,14.531L42.159,0.527L36.827,0.527C33.092,6.152 30.118,10.855 28.214,14.355L28.214,17.725L38.541,17.725L38.541,21.665ZM31.715,14.399C34.176,10.063 36.373,6.592 38.395,3.604L38.6,3.604L38.6,14.619L31.715,14.619L31.715,14.399Z" fill="#000000"/>
<path d="M53.073,21.665L56.852,21.665L56.852,0.527L53.088,0.527L47.565,4.395L47.565,8.027L52.824,4.336L53.073,4.336L53.073,21.665Z" fill="#000000"/>
</svg>
