<svg width="58" height="24" viewBox="0 0 58 24" fill="none" xmlns="http://www.w3.org/2000/svg" xmlns:xlink="http://www.w3.org/1999/xlink">
<path d="M8.641,22.513C14.017,22.513 17.211,18.309 17.211,11.189C17.211,8.509 16.698,6.253 15.717,4.51C14.296,1.8 11.849,0.335 8.759,0.335C4.159,0.335 0.907,3.426 0.907,7.762C0.907,11.834 3.837,14.793 7.865,14.793C10.341,14.793 12.347,13.636 13.344,11.629L13.387,11.629C13.387,11.629 13.446,11.629 13.461,11.629C13.49,11.629 13.593,11.629 13.593,11.629C13.593,16.463 11.761,19.349 8.671,19.349C6.854,19.349 5.448,18.353 4.965,16.756L1.2,16.756C1.83,20.228 4.774,22.513 8.641,22.513ZM8.773,11.79C6.342,11.79 4.613,10.062 4.613,7.645C4.613,5.286 6.429,3.484 8.788,3.484C11.146,3.484 12.963,5.315 12.963,7.703C12.963,10.062 11.19,11.79 8.773,11.79Z" transform="rotate(0 29.333 11.424)" fill="#242424"/>
<path d="M23.393,22.308C24.785,22.308 25.737,21.312 25.737,19.993C25.737,18.66 24.785,17.679 23.393,17.679C22.016,17.679 21.049,18.66 21.049,19.993C21.049,21.312 22.016,22.308 23.393,22.308ZM23.393,11.321C24.785,11.321 25.737,10.34 25.737,9.021C25.737,7.688 24.785,6.707 23.393,6.707C22.016,6.707 21.049,7.688 21.049,9.021C21.049,10.34 22.016,11.321 23.393,11.321Z" transform="rotate(0 29.333 11.424)" fill="#242424"/>
<path d="M39.448,22L43.066,22L43.066,18.06L45.923,18.06L45.923,14.866L43.066,14.866L43.066,0.862L37.734,0.862C33.999,6.487 31.025,11.189 29.121,14.69L29.121,18.06L39.448,18.06L39.448,22ZM32.622,14.734C35.083,10.398 37.28,6.927 39.302,3.938L39.507,3.938L39.507,14.954L32.622,14.954L32.622,14.734Z" transform="rotate(0 29.333 11.424)" fill="#242424"/>
<path d="M53.98,22L57.759,22L57.759,0.862L53.995,0.862L48.472,4.73L48.472,8.362L53.731,4.671L53.98,4.671L53.98,22Z" transform="rotate(0 29.333 11.424)" fill="#242424"/>
</svg>
