<svg width="40" height="28" viewBox="0 0 40 28" fill="none" xmlns="http://www.w3.org/2000/svg" xmlns:xlink="http://www.w3.org/1999/xlink">
<path d="M24,8L26,8C27.105,8 28,8.895 28,10L28,22C28,23.105 27.105,24 26,24L24,24C22.895,24 22,23.105 22,22L22,10C22,8.895 22.895,8 24,8Z" clip-rule="evenodd" fill-rule="evenodd" fill="#D9D9D9"/>
<path d="M15,12L17,12C18.105,12 19,12.895 19,14L19,22C19,23.105 18.105,24 17,24L15,24C13.895,24 13,23.105 13,22L13,14C13,12.895 13.895,12 15,12Z" clip-rule="evenodd" fill-rule="evenodd" fill="#D9D9D9"/>
<path d="M6,15L8,15C9.105,15 10,15.895 10,17L10,22C10,23.105 9.105,24 8,24L6,24C4.895,24 4,23.105 4,22L4,17C4,15.895 4.895,15 6,15Z" clip-rule="evenodd" fill-rule="evenodd" fill="#D9D9D9"/>
<path d="M33,4L35,4C36.105,4 37,4.895 37,6L37,22C37,23.105 36.105,24 35,24L33,24C31.895,24 31,23.105 31,22L31,6C31,4.895 31.895,4 33,4Z" clip-rule="evenodd" fill-rule="evenodd" fill="#3C3C43" fill-opacity="0.18"/>
<path d="M24,8L26,8C27.105,8 28,8.895 28,10L28,22C28,23.105 27.105,24 26,24L24,24C22.895,24 22,23.105 22,22L22,10C22,8.895 22.895,8 24,8Z" clip-rule="evenodd" fill-rule="evenodd" fill="#000000"/>
<path d="M15,12L17,12C18.105,12 19,12.895 19,14L19,22C19,23.105 18.105,24 17,24L15,24C13.895,24 13,23.105 13,22L13,14C13,12.895 13.895,12 15,12Z" clip-rule="evenodd" fill-rule="evenodd" fill="#000000"/>
<path d="M6,15L8,15C9.105,15 10,15.895 10,17L10,22C10,23.105 9.105,24 8,24L6,24C4.895,24 4,23.105 4,22L4,17C4,15.895 4.895,15 6,15Z" clip-rule="evenodd" fill-rule="evenodd" fill="#000000"/>
</svg>
