<svg width="48" height="50" viewBox="0 0 48 50" fill="none" xmlns="http://www.w3.org/2000/svg" xmlns:xlink="http://www.w3.org/1999/xlink">
<path d="M24.04,41.727C19.38,41.727 14.72,40.987 10.3,39.507C8.62,38.927 7.34,37.747 6.78,36.207C6.2,34.667 6.4,32.967 7.32,31.447L9.62,27.627C10.1,26.827 10.54,25.227 10.54,24.287L10.54,18.507C10.54,11.067 16.6,5.007 24.04,5.007C31.48,5.007 37.54,11.067 37.54,18.507L37.54,24.287C37.54,25.207 37.98,26.827 38.46,27.647L40.74,31.447C41.6,32.887 41.76,34.627 41.18,36.207C40.6,37.787 39.34,38.987 37.76,39.507C33.36,40.987 28.7,41.727 24.04,41.727ZM24.04,8.007C18.26,8.007 13.54,12.707 13.54,18.507L13.54,24.287C13.54,25.747 12.94,27.907 12.2,29.167L9.9,32.987C9.46,33.727 9.34,34.507 9.6,35.167C9.84,35.847 10.44,36.367 11.26,36.647C19.62,39.447 28.48,39.447 36.84,36.647C37.56,36.407 38.12,35.867 38.38,35.147C38.64,34.427 38.58,33.647 38.18,32.987L35.88,29.167C35.12,27.867 34.54,25.727 34.54,24.267L34.54,18.507C34.54,12.707 29.84,8.007 24.04,8.007Z" fill="#000000"/>
<path d="M24.04,46.287C22.06,46.287 20.14,45.487 18.74,44.087C17.34,42.687 16.54,40.767 16.54,38.787L19.54,38.787C19.54,39.967 20.02,41.127 20.86,41.967C21.7,42.807 22.86,43.287 24.04,43.287C26.52,43.287 28.54,41.267 28.54,38.787L31.54,38.787C31.54,42.927 28.18,46.287 24.04,46.287Z" fill="#000000"/>
</svg>
