<svg width="52" height="28" viewBox="0 0 52 28" fill="none" xmlns="http://www.w3.org/2000/svg" xmlns:xlink="http://www.w3.org/1999/xlink">
<path d="M6.576,0C2.992,0 0.087,2.686 0.087,6L0.087,22C0.087,25.314 2.992,28 6.576,28L36.859,28C40.443,28 43.348,25.314 43.348,22L43.348,6C43.348,2.686 40.443,0 36.859,0L6.576,0ZM4.413,6C4.413,4.895 5.381,4 6.576,4L36.859,4C38.053,4 39.022,4.895 39.022,6L39.022,22C39.022,23.105 38.053,24 36.859,24L6.576,24C5.381,24 4.413,23.105 4.413,22L4.413,6Z" clip-rule="evenodd" fill-rule="evenodd" fill="#2D3648"/>
<path d="M52,12C52,10.895 51.032,10 49.837,10C48.642,10 47.674,10.895 47.674,12L47.674,16C47.674,17.105 48.642,18 49.837,18C51.032,18 52,17.105 52,16L52,12Z" fill="#2D3648"/>
</svg>
