<svg width="52" height="28" viewBox="0 0 52 28" fill="none" xmlns="http://www.w3.org/2000/svg" xmlns:xlink="http://www.w3.org/1999/xlink">
<path d="M7.033,0C3.485,0 0.609,2.686 0.609,6L0.609,22C0.609,25.314 3.485,28 7.033,28L37.011,28C40.559,28 43.435,25.314 43.435,22L43.435,6C43.435,2.686 40.559,0 37.011,0L7.033,0ZM4.891,6C4.891,4.895 5.85,4 7.033,4L37.011,4C38.194,4 39.152,4.895 39.152,6L39.152,22C39.152,23.105 38.194,24 37.011,24L7.033,24C5.85,24 4.891,23.105 4.891,22L4.891,6Z" clip-rule="evenodd" fill-rule="evenodd" fill="#2D3648"/>
<path d="M52,12C52,10.895 51.041,10 49.859,10C48.676,10 47.717,10.895 47.717,12L47.717,16C47.717,17.105 48.676,18 49.859,18C51.041,18 52,17.105 52,16L52,12Z" fill="#2D3648"/>
</svg>
