<svg width="28" height="36" viewBox="0 0 28 36" fill="none" xmlns="http://www.w3.org/2000/svg" xmlns:xlink="http://www.w3.org/1999/xlink">
<path d="M25.495,0C26.617,0 27.528,0.895 27.528,2L27.528,34C27.528,35.105 26.617,36 25.495,36C24.372,36 23.462,35.105 23.462,34L23.462,2C23.462,0.895 24.372,0 25.495,0Z" fill="#2D3648"/>
<path d="M13.299,12C14.422,12 15.332,12.895 15.332,14L15.332,34C15.332,35.105 14.422,36 13.299,36C12.177,36 11.267,35.105 11.267,34L11.267,14C11.267,12.895 12.177,12 13.299,12Z" fill="#2D3648"/>
<path d="M3.136,26C3.136,24.895 2.226,24 1.104,24C-0.019,24 -0.929,24.895 -0.929,26L-0.929,34C-0.929,35.105 -0.019,36 1.104,36C2.226,36 3.136,35.105 3.136,34L3.136,26Z" fill="#2D3648"/>
</svg>
