<svg width="50" height="28" viewBox="0 0 50 28" fill="none" xmlns="http://www.w3.org/2000/svg" xmlns:xlink="http://www.w3.org/1999/xlink">
<path d="M5.324,0C1.956,0 -0.774,2.686 -0.774,6L-0.774,22C-0.774,25.314 1.956,28 5.324,28L33.781,28C37.148,28 39.878,25.314 39.878,22L39.878,6C39.878,2.686 37.148,0 33.781,0L5.324,0ZM3.291,6C3.291,4.895 4.201,4 5.324,4L33.781,4C34.903,4 35.813,4.895 35.813,6L35.813,22C35.813,23.105 34.903,24 33.781,24L5.324,24C4.201,24 3.291,23.105 3.291,22L3.291,6Z" clip-rule="evenodd" fill-rule="evenodd" fill="#2D3648"/>
<path d="M48.009,12C48.009,10.895 47.099,10 45.976,10C44.854,10 43.944,10.895 43.944,12L43.944,16C43.944,17.105 44.854,18 45.976,18C47.099,18 48.009,17.105 48.009,16L48.009,12Z" fill="#2D3648"/>
</svg>
