<svg width="50" height="34" viewBox="0 0 50 34" fill="none" xmlns="http://www.w3.org/2000/svg" xmlns:xlink="http://www.w3.org/1999/xlink">
<path d="M2.882,11.5C8.808,6.67 16.437,4.005 24.337,4.005C32.237,4.005 39.865,6.67 45.791,11.5C46.688,12.231 48.054,12.151 48.844,11.323C49.634,10.494 49.548,9.23 48.652,8.5C41.936,3.026 33.29,0.005 24.337,0.005C15.383,0.005 6.738,3.026 0.021,8.5C-0.875,9.23 -0.961,10.494 -0.171,11.323C0.619,12.151 1.986,12.231 2.882,11.5Z" fill="#2D3648"/>
<path d="M10.58,18.637C14.467,15.644 19.365,14.004 24.423,14.004C29.482,14.004 34.38,15.644 38.267,18.637C39.185,19.344 40.549,19.229 41.313,18.38C42.078,17.531 41.953,16.27 41.036,15.563C36.371,11.971 30.493,10.004 24.423,10.004C18.353,10.004 12.475,11.971 7.811,15.563C6.893,16.27 6.769,17.531 7.533,18.38C8.298,19.229 9.662,19.344 10.58,18.637Z" fill="#2D3648"/>
<path d="M24.348,24.003C22.103,24.003 19.914,24.649 18.084,25.851C17.11,26.49 15.76,26.279 15.068,25.379C14.376,24.478 14.604,23.23 15.578,22.59C18.14,20.907 21.205,20.003 24.348,20.003C27.49,20.003 30.555,20.907 33.117,22.59C34.091,23.23 34.32,24.478 33.628,25.379C32.936,26.279 31.585,26.49 30.612,25.851C28.782,24.649 26.592,24.003 24.348,24.003Z" fill="#2D3648"/>
<path d="M24.337,30C23.142,30 22.174,30.896 22.174,32C22.174,33.105 23.142,34 24.337,34L24.358,34C25.553,34 26.522,33.105 26.522,32C26.522,30.896 25.553,30 24.358,30L24.337,30Z" fill="#2D3648"/>
</svg>
