<svg width="98" height="98" viewBox="0 0 98 98" fill="none" xmlns="http://www.w3.org/2000/svg" xmlns:xlink="http://www.w3.org/1999/xlink">
<path d="M19,31.083C19,24.41 24.41,19 31.083,19C37.757,19 43.167,24.41 43.167,31.083C43.167,37.757 37.757,43.167 31.083,43.167C24.41,43.167 19,37.757 19,31.083ZM31.083,28.667C29.749,28.667 28.667,29.749 28.667,31.083C28.667,32.418 29.749,33.5 31.083,33.5C32.418,33.5 33.5,32.418 33.5,31.083C33.5,29.749 32.418,28.667 31.083,28.667Z" clip-rule="evenodd" fill-rule="evenodd" fill="#2D3648"/>
<path d="M-0.333,14.167C-0.333,6.159 6.159,-0.333 14.167,-0.333L81.833,-0.333C89.842,-0.333 96.333,6.159 96.333,14.167L96.333,81.833C96.333,89.842 89.842,96.333 81.833,96.333L14.167,96.333C6.159,96.333 -0.333,89.842 -0.333,81.833L-0.333,14.167ZM14.167,9.333C11.497,9.333 9.333,11.497 9.333,14.167L9.333,81.833C9.333,83.906 10.638,85.674 12.471,86.361L63.916,34.916C65.804,33.028 68.864,33.028 70.752,34.916L86.667,50.831L86.667,14.167C86.667,11.497 84.503,9.333 81.833,9.333L14.167,9.333ZM86.667,64.502L67.334,45.169L25.836,86.667L81.833,86.667C84.503,86.667 86.667,84.503 86.667,81.833L86.667,64.502Z" clip-rule="evenodd" fill-rule="evenodd" fill="#2D3648"/>
</svg>
