<svg width="48" height="34" viewBox="0 0 48 34" fill="none" xmlns="http://www.w3.org/2000/svg" xmlns:xlink="http://www.w3.org/1999/xlink">
<path d="M4.3,11.5C9.869,6.67 17.037,4.005 24.461,4.005C31.884,4.005 39.053,6.67 44.622,11.5C45.464,12.231 46.748,12.151 47.491,11.323C48.233,10.494 48.152,9.23 47.31,8.5C40.999,3.026 32.874,0.005 24.461,0.005C16.048,0.005 7.923,3.026 1.612,8.5C0.77,9.23 0.689,10.494 1.431,11.323C2.173,12.151 3.458,12.231 4.3,11.5Z" fill="#2D3648"/>
<path d="M11.534,18.637C15.186,15.644 19.789,14.004 24.542,14.004C29.296,14.004 33.899,15.644 37.551,18.637C38.414,19.344 39.695,19.229 40.414,18.38C41.132,17.531 41.015,16.27 40.153,15.563C35.77,11.971 30.246,10.004 24.542,10.004C18.838,10.004 13.315,11.971 8.932,15.563C8.069,16.27 7.952,17.531 8.671,18.38C9.389,19.229 10.671,19.344 11.534,18.637Z" fill="#2D3648"/>
<path d="M24.471,24.003C22.362,24.003 20.305,24.649 18.585,25.851C17.67,26.49 16.401,26.279 15.751,25.379C15.101,24.478 15.316,23.23 16.231,22.59C18.638,20.907 21.518,20.003 24.471,20.003C27.424,20.003 30.304,20.907 32.712,22.59C33.627,23.23 33.842,24.478 33.192,25.379C32.541,26.279 31.272,26.49 30.357,25.851C28.638,24.649 26.581,24.003 24.471,24.003Z" fill="#2D3648"/>
<path d="M24.461,30C23.338,30 22.428,30.896 22.428,32C22.428,33.105 23.338,34 24.461,34L24.481,34C25.604,34 26.514,33.105 26.514,32C26.514,30.896 25.604,30 24.481,30L24.461,30Z" fill="#2D3648"/>
</svg>
