<svg width="30" height="36" viewBox="0 0 30 36" fill="none" xmlns="http://www.w3.org/2000/svg" xmlns:xlink="http://www.w3.org/1999/xlink">
<path d="M27.446,0C28.64,0 29.609,0.895 29.609,2L29.609,34C29.609,35.105 28.64,36 27.446,36C26.251,36 25.283,35.105 25.283,34L25.283,2C25.283,0.895 26.251,0 27.446,0Z" fill="#2D3648"/>
<path d="M14.467,12C15.662,12 16.631,12.895 16.631,14L16.631,34C16.631,35.105 15.662,36 14.467,36C13.273,36 12.304,35.105 12.304,34L12.304,14C12.304,12.895 13.273,12 14.467,12Z" fill="#2D3648"/>
<path d="M3.652,26C3.652,24.895 2.684,24 1.489,24C0.295,24 -0.674,24.895 -0.674,26L-0.674,34C-0.674,35.105 0.295,36 1.489,36C2.684,36 3.652,35.105 3.652,34L3.652,26Z" fill="#2D3648"/>
</svg>
