<svg width="30" height="36" viewBox="0 0 30 36" fill="none" xmlns="http://www.w3.org/2000/svg" xmlns:xlink="http://www.w3.org/1999/xlink">
<path d="M27.12,0C28.303,0 29.261,0.895 29.261,2L29.261,34C29.261,35.105 28.303,36 27.12,36C25.938,36 24.979,35.105 24.979,34L24.979,2C24.979,0.895 25.938,0 27.12,0Z" fill="#2D3648"/>
<path d="M14.272,12C15.455,12 16.414,12.895 16.414,14L16.414,34C16.414,35.105 15.455,36 14.272,36C13.09,36 12.131,35.105 12.131,34L12.131,14C12.131,12.895 13.09,12 14.272,12Z" fill="#2D3648"/>
<path d="M3.566,26C3.566,24.895 2.607,24 1.425,24C0.242,24 -0.717,24.895 -0.717,26L-0.717,34C-0.717,35.105 0.242,36 1.425,36C2.607,36 3.566,35.105 3.566,34L3.566,26Z" fill="#2D3648"/>
</svg>
