<svg width="52" height="34" viewBox="0 0 52 34" fill="none" xmlns="http://www.w3.org/2000/svg" xmlns:xlink="http://www.w3.org/1999/xlink">
<path d="M4.12,11.5C9.986,6.67 17.538,4.005 25.359,4.005C33.179,4.005 40.731,6.67 46.598,11.5C47.485,12.231 48.838,12.151 49.62,11.323C50.402,10.494 50.317,9.23 49.43,8.5C42.781,3.026 34.222,0.005 25.359,0.005C16.496,0.005 7.937,3.026 1.288,8.5C0.401,9.23 0.315,10.494 1.097,11.323C1.879,12.151 3.233,12.231 4.12,11.5Z" fill="#2D3648"/>
<path d="M11.74,18.637C15.588,15.644 20.437,14.004 25.445,14.004C30.452,14.004 35.301,15.644 39.149,18.637C40.058,19.344 41.408,19.229 42.165,18.38C42.922,17.531 42.798,16.27 41.89,15.563C37.273,11.971 31.454,10.004 25.445,10.004C19.436,10.004 13.617,11.971 8.999,15.563C8.091,16.27 7.968,17.531 8.725,18.38C9.481,19.229 10.832,19.344 11.74,18.637Z" fill="#2D3648"/>
<path d="M25.37,24.003C23.148,24.003 20.981,24.649 19.169,25.851C18.205,26.49 16.868,26.279 16.183,25.379C15.498,24.478 15.724,23.23 16.689,22.59C19.225,20.907 22.259,20.003 25.37,20.003C28.481,20.003 31.515,20.907 34.051,22.59C35.015,23.23 35.241,24.478 34.557,25.379C33.872,26.279 32.535,26.49 31.571,25.851C29.759,24.649 27.592,24.003 25.37,24.003Z" fill="#2D3648"/>
<path d="M25.359,30C24.176,30 23.218,30.896 23.218,32C23.218,33.105 24.176,34 25.359,34L25.381,34C26.563,34 27.522,33.105 27.522,32C27.522,30.896 26.563,30 25.381,30L25.359,30Z" fill="#2D3648"/>
</svg>
