<svg width="860" height="140" viewBox="0 0 860 140" fill="none" xmlns="http://www.w3.org/2000/svg" xmlns:xlink="http://www.w3.org/1999/xlink">
<path d="M138.048,117.542C137.575,118.157 136.746,118.772 135.564,119.387C134.382,120.001 133.082,120.401 131.663,120.585C130.245,120.77 128.826,120.647 127.407,120.217C125.989,119.786 124.688,118.895 123.506,117.543C118.777,113.117 114.699,109.029 111.27,105.279C107.842,101.529 104.709,97.595 101.872,93.476C99.035,89.358 96.198,84.809 93.36,79.83C90.523,74.85 87.213,68.918 83.43,62.034C79.883,67.566 76.159,73.406 72.258,79.553C68.357,85.7 64.338,91.694 60.2,97.534C56.062,103.374 51.865,108.814 47.61,113.854C43.354,118.895 39.216,123.013 35.197,126.21C32.596,128.054 30.409,129.284 28.635,129.899C26.862,130.513 25.325,130.728 24.025,130.544C22.724,130.36 21.66,129.899 20.833,129.161C20.006,128.423 19.355,127.747 18.883,127.132C16.755,116.436 14.922,106.17 13.386,96.335C11.849,86.5 10.371,77.709 8.952,69.963C7.534,62.218 6.115,55.794 4.696,50.692C3.278,45.59 1.741,42.485 0.086,41.379C-0.387,39.166 1.091,37.506 4.52,36.4C7.948,35.293 11.317,35.047 14.627,35.662C15.573,35.785 16.519,37.814 17.465,41.748C18.411,45.682 19.297,50.569 20.125,56.409C20.952,62.249 21.78,68.611 22.607,75.496C23.434,82.381 24.262,88.743 25.089,94.583C25.917,100.423 26.626,105.279 27.217,109.152C27.808,113.025 28.458,114.961 29.168,114.961C29.877,115.822 31.355,115.33 33.601,113.486C35.847,111.641 38.448,108.906 41.403,105.279C44.358,101.652 47.55,97.349 50.979,92.37C54.407,87.391 57.836,82.258 61.264,76.971C64.692,71.685 67.943,66.429 71.017,61.204C74.09,55.979 76.81,51.276 79.174,47.096C80.356,45.744 81.42,44.821 82.366,44.33C83.312,43.838 85.322,43.776 88.396,44.145C90.051,44.514 91.351,45.436 92.297,46.911C93.243,48.387 93.953,50.231 94.425,52.444C94.898,54.657 95.489,57.116 96.199,59.821C96.908,62.525 97.972,65.23 99.39,67.935C100.573,70.271 102.109,73.191 104.001,76.695C105.892,80.199 107.961,83.795 110.207,87.483C112.453,91.171 114.817,94.706 117.3,98.087C119.783,101.468 122.442,104.142 125.28,106.109C126.698,106.724 128.412,105.463 130.422,102.328C132.432,99.193 134.501,94.983 136.629,89.696C138.757,84.409 140.825,78.447 142.835,71.808C144.845,65.169 146.559,58.714 147.978,52.444C149.396,46.174 150.401,40.488 150.992,35.385C151.584,30.283 151.524,26.564 150.815,24.228C150.815,22.753 150.992,21.708 151.347,21.093C151.702,20.479 151.997,20.018 152.234,19.71C152.47,19.403 152.588,19.126 152.588,18.88C152.588,18.634 152.352,18.143 151.879,17.405C151.406,16.913 151.584,16.329 152.411,15.653C153.238,14.977 154.302,14.392 155.603,13.901C156.903,13.409 158.322,13.101 159.859,12.978C161.395,12.855 162.755,13.101 163.937,13.716C164.646,14.208 165.001,15.283 165.001,16.943C165.001,18.603 164.824,20.724 164.469,23.306C164.114,25.887 163.641,28.899 163.05,32.342C162.459,35.784 162.045,39.534 161.809,43.591C160.153,49.861 158.439,56.316 156.666,62.955C154.893,69.594 153.06,76.141 151.169,82.595C149.278,89.05 147.209,95.289 144.963,101.313C142.717,107.338 140.412,112.747 138.048,117.542ZM194.793,76.602C195.502,76.479 197.512,76.14 200.822,75.587C204.132,75.033 206.852,74.941 208.98,75.31C215.836,75.187 221.096,76.109 224.762,78.076C228.426,80.043 228.722,83.855 225.648,89.51C221.156,95.78 215.186,101.005 207.738,105.185C200.29,109.366 191.483,113.361 181.315,117.172C183.68,120.369 187.227,122.152 191.955,122.52C196.684,122.889 201.648,122.49 206.85,121.322C212.052,120.154 217.136,118.586 222.1,116.619C227.066,114.652 231.086,112.931 234.16,111.456C239.124,109.243 243.086,107.368 246.04,105.831C248.996,104.294 252.128,102.419 255.438,100.206C256.148,99.96 256.562,99.991 256.68,100.299C256.798,100.606 256.738,101.067 256.502,101.682C256.266,102.296 255.912,103.157 255.438,104.263C254.73,105.124 254.02,105.893 253.31,106.569C252.602,107.245 251.596,107.983 250.296,108.782C248.996,109.581 247.282,110.534 245.154,111.64C243.026,112.747 240.424,114.222 237.35,116.066C233.804,117.787 230.376,119.478 227.066,121.138C223.756,122.797 220.268,124.242 216.604,125.471C212.938,126.701 208.92,127.562 204.546,128.053C200.17,128.545 195.147,128.545 189.472,128.053C184.744,127.193 180.96,126.271 178.123,125.287C175.286,124.304 173.099,123.289 171.562,122.244C170.025,121.199 168.902,120.246 168.193,119.386C167.483,118.525 167.011,117.787 166.774,117.173C165.592,114.714 165.119,111.395 165.356,107.214C165.592,103.034 167.957,97.625 172.449,90.986C175.523,87.543 178.833,84.623 182.38,82.226C185.926,79.829 190.064,77.954 194.793,76.602ZM179.188,109.243C182.262,108.383 185.865,107.184 190.003,105.647C194.141,104.11 198.042,102.327 201.706,100.299C205.372,98.27 208.564,96.027 211.282,93.568C214.002,91.109 215.48,88.527 215.716,85.822C216.426,83.978 216.308,82.687 215.362,81.95C214.888,81.581 214.416,81.396 213.944,81.396C209.924,80.413 205.904,80.72 201.884,82.319C197.865,83.917 194.201,86.191 190.89,89.142C187.58,92.093 184.802,95.381 182.556,99.008C180.31,102.635 179.188,106.047 179.188,109.243ZM275.654,92.646C281.092,93.261 286,93.753 290.374,94.122C294.748,94.491 299.122,94.829 303.496,95.136C307.87,95.444 312.716,95.72 318.036,95.966C323.356,96.212 329.682,96.519 337.01,96.888C339.138,98.118 340.558,99.132 341.266,99.931C341.976,100.73 342.922,101.99 344.104,103.711C336.538,102.974 329.682,102.42 323.534,102.052C317.386,101.683 311.298,101.375 305.27,101.13C299.24,100.884 293.034,100.668 286.65,100.484C280.266,100.3 273.172,100.023 265.37,99.654C265.134,105.924 265.37,111.488 266.08,116.344C266.788,121.2 266.788,125.595 266.08,129.53C264.662,129.653 263.538,129.53 262.71,129.161C261.882,128.792 261.114,128.362 260.406,127.87C259.696,127.378 258.928,126.856 258.1,126.302C257.272,125.749 256.15,125.349 254.73,125.104C255.44,108.137 255.322,92.523 254.376,78.262C253.43,64.001 253.194,50.354 253.666,37.322C253.666,34.863 253.726,32.066 253.844,28.931C253.962,25.796 254.02,22.722 254.02,19.71C254.02,16.698 253.902,13.993 253.666,11.596C253.43,9.198 252.956,7.569 252.248,6.709C253.902,5.725 255.498,5.11 257.036,4.865C258.572,4.619 261.35,4.434 265.37,4.311C265.842,19.31 265.842,34.126 265.37,48.756C264.896,63.385 264.896,77.279 265.37,90.434C269.388,88.835 273.644,86.868 278.138,84.532C282.63,82.196 286.826,79.922 290.728,77.709C294.628,75.496 297.998,73.56 300.836,71.9C303.672,70.24 305.446,69.349 306.156,69.226C308.284,70.209 310.47,71.039 312.716,71.715C314.962,72.392 316.086,72.668 316.086,72.545C310.174,75.988 304.028,79.645 297.644,83.518C291.26,87.391 283.93,90.433 275.654,92.646ZM417.162,74.573C416.926,75.311 416.394,76.847 415.568,79.183C414.74,81.519 413.854,84.255 412.908,87.39C411.962,90.525 411.134,93.813 410.424,97.256C409.716,100.698 409.302,103.957 409.184,107.03C409.066,110.103 409.42,112.716 410.248,114.868C411.074,117.019 412.434,118.341 414.326,118.833C419.764,120.185 425.32,119.724 430.994,117.45C436.668,115.175 443.29,111.702 450.856,107.03C451.564,107.03 451.624,107.522 451.032,108.505C450.442,109.489 449.496,110.565 448.194,111.733L444.294,115.236L441.28,117.542C439.388,118.771 436.668,120.154 433.122,121.691C429.576,123.228 425.792,124.457 421.772,125.379C417.754,126.301 413.912,126.701 410.246,126.578C406.582,126.455 403.568,125.348 401.202,123.258C400.02,121.783 399.312,119.97 399.074,117.818C398.838,115.667 398.838,113.484 399.074,111.271C399.312,109.058 399.666,107.03 400.138,105.186C400.612,103.342 400.966,101.989 401.202,101.129C396.238,105.923 390.564,110.472 384.18,114.775C377.796,119.078 371.53,122.459 365.382,124.918C359.236,127.377 353.562,128.699 348.36,128.883C343.158,129.068 339.138,127.5 336.3,124.181C334.646,120.984 334.646,117.388 336.3,113.392C337.956,109.396 340.438,105.8 343.748,102.604C348.714,98.178 353.916,94.121 359.354,90.432C364.792,86.744 370.584,83.609 376.732,81.027C382.88,78.445 389.322,76.571 396.06,75.403C402.798,74.235 409.832,73.958 417.162,74.573ZM350.488,121.414C352.852,121.66 356.636,120.738 361.836,118.648C367.038,116.558 372.476,113.638 378.152,109.888C383.826,106.138 388.968,101.774 393.578,96.795C398.19,91.815 401.204,86.559 402.622,81.027L398.544,81.027L392.338,82.133C383.354,85.207 375.668,88.803 369.284,92.922C362.9,97.04 357.936,101.036 354.39,104.909C350.842,108.782 348.714,112.255 348.006,115.328C347.296,118.402 348.124,120.431 350.488,121.414ZM518.594,77.155C519.776,81.704 521.018,86.499 522.32,91.54C523.62,96.581 524.742,101.437 525.688,106.109C526.634,110.781 527.226,115.022 527.462,118.834C527.698,122.645 527.462,125.565 526.754,127.594C526.044,129.622 524.626,130.483 522.498,130.175C520.37,129.868 517.296,127.932 513.276,124.366C513.276,115.883 512.508,107.861 510.97,100.3C509.434,92.739 507.484,85.147 505.12,77.525C499.682,77.525 494.362,77.064 489.16,76.142C483.958,75.219 479.23,74.174 474.974,73.006C470.718,71.839 467.348,70.609 464.866,69.318C462.382,68.027 461.142,66.952 461.142,66.091C462.796,66.337 465.398,66.644 468.944,67.013C472.49,67.382 476.214,67.72 480.116,68.027C484.016,68.335 487.918,68.581 491.82,68.765C495.72,68.949 498.854,69.042 501.218,69.042C499.8,63.509 498.44,58.53 497.14,54.104C495.838,49.678 494.538,45.375 493.238,41.195C491.938,37.015 490.636,32.742 489.336,28.378C488.036,24.014 486.794,19.126 485.612,13.717C478.282,12.118 470.894,10.643 463.446,9.291C455.998,7.938 448.846,6.402 441.99,4.681C441.516,3.943 441.162,3.42 440.926,3.113C440.688,2.806 440.63,2.529 440.748,2.283C440.866,2.037 441.22,1.761 441.812,1.453C442.404,1.146 443.408,0.685 444.826,0.07C446.718,-0.176 451.152,0.224 458.126,1.269C465.102,2.314 473.376,3.79 482.952,5.695C492.528,7.601 502.812,9.875 513.808,12.518C524.802,15.162 535.442,17.867 545.726,20.633C556.012,23.399 565.232,26.165 573.39,28.931C581.546,31.698 587.516,34.249 591.3,36.585C594.846,38.06 597.27,39.781 598.57,41.748C599.87,43.716 600.226,45.744 599.634,47.834C599.042,49.924 597.564,52.014 595.2,54.104C592.836,56.194 589.88,58.161 586.334,60.006C582.788,61.727 578.59,63.54 573.744,65.446C568.896,67.352 563.636,69.134 557.962,70.794C552.286,72.454 546.14,73.868 539.52,75.035C532.898,76.203 525.924,76.909 518.594,77.155ZM513.984,68.672C525.096,68.672 534.968,68.057 543.598,66.827C552.228,65.598 559.498,63.877 565.41,61.664C571.322,59.451 575.636,56.869 578.354,53.918C581.074,50.968 581.96,47.894 581.014,44.698C580.542,42.239 577.35,39.749 571.438,37.229C565.528,34.708 558.376,32.249 549.982,29.852C541.59,27.455 532.722,25.119 523.382,22.844C514.044,20.57 505.71,18.388 498.38,16.298C498.852,18.879 499.502,21.676 500.33,24.688C501.158,27.7 502.162,31.204 503.344,35.2C504.526,39.196 506.004,43.899 507.778,49.308C509.55,54.717 511.62,61.172 513.984,68.672ZM599.102,76.602C599.81,76.479 601.82,76.14 605.13,75.587C608.44,75.033 611.16,74.941 613.288,75.31C620.144,75.187 625.404,76.109 629.07,78.076C632.736,80.043 633.03,83.855 629.956,89.51C625.464,95.78 619.494,101.005 612.046,105.185C604.598,109.366 595.792,113.361 585.624,117.172C587.988,120.369 591.534,122.152 596.264,122.52C600.992,122.889 605.958,122.49 611.16,121.322C616.362,120.154 621.444,118.586 626.41,116.619C631.374,114.652 635.394,112.931 638.468,111.456C643.432,109.243 647.394,107.368 650.348,105.831C653.304,104.294 656.436,102.419 659.748,100.206C660.456,99.96 660.87,99.991 660.988,100.299C661.106,100.606 661.048,101.067 660.81,101.682C660.574,102.296 660.22,103.157 659.746,104.263C659.038,105.124 658.328,105.893 657.618,106.569C656.91,107.245 655.904,107.983 654.604,108.782C653.304,109.581 651.59,110.534 649.462,111.64C647.334,112.747 644.734,114.222 641.66,116.066C638.112,117.787 634.684,119.478 631.374,121.138C628.064,122.797 624.576,124.242 620.912,125.471C617.246,126.701 613.228,127.562 608.854,128.053C604.48,128.545 599.456,128.545 593.78,128.053C589.052,127.193 585.268,126.271 582.432,125.287C579.594,124.304 577.408,123.289 575.87,122.244C574.334,121.199 573.21,120.246 572.502,119.386C571.792,118.525 571.32,117.787 571.082,117.173C569.9,114.714 569.428,111.395 569.664,107.214C569.9,103.034 572.266,97.625 576.758,90.986C579.832,87.543 583.142,84.623 586.688,82.226C590.234,79.829 594.372,77.954 599.102,76.602ZM583.496,109.243C586.57,108.383 590.174,107.184 594.312,105.647C598.45,104.11 602.35,102.327 606.016,100.299C609.68,98.27 612.872,96.027 615.592,93.568C618.31,91.109 619.788,88.527 620.024,85.822C620.734,83.978 620.616,82.687 619.67,81.95C619.198,81.581 618.724,81.396 618.252,81.396C614.232,80.413 610.212,80.72 606.194,82.319C602.174,83.917 598.51,86.191 595.198,89.142C591.888,92.093 589.11,95.381 586.864,99.008C584.618,102.635 583.496,106.047 583.496,109.243ZM694.858,70.7C700.77,71.192 705.678,71.868 709.578,72.729C713.48,73.59 716.554,74.542 718.8,75.588C721.046,76.633 722.818,77.708 724.12,78.815C725.42,79.921 726.662,80.966 727.844,81.95C727.606,82.442 726.484,82.38 724.474,81.766C722.464,81.151 720.514,80.536 718.622,79.922C713.42,78.201 707.154,77.155 699.826,76.787C692.496,76.418 685.698,76.633 679.432,77.432C673.168,78.231 668.142,79.614 664.36,81.581C660.578,83.549 659.63,85.946 661.522,88.774C663.414,91.601 666.782,94.06 671.63,96.15C676.476,98.241 681.856,100.115 687.766,101.775C693.676,103.435 699.588,104.941 705.5,106.293C711.41,107.645 716.258,108.998 720.04,110.35C724.768,108.998 728.788,107.861 732.098,106.938C735.408,106.016 738.364,105.156 740.964,104.357C743.566,103.558 746.226,102.82 748.944,102.144C751.664,101.467 754.796,100.699 758.342,99.838C758.816,99.715 759.23,99.654 759.584,99.654C759.938,99.654 759.938,99.807 759.584,100.115C759.23,100.422 758.284,100.914 756.746,101.59C755.21,102.267 752.786,103.22 749.476,104.449C747.822,105.064 744.748,106.109 740.256,107.584C735.764,109.059 730.916,110.658 725.714,112.379C728.552,113.731 730.798,115.145 732.454,116.62C733.872,117.973 734.876,119.417 735.468,120.954C736.06,122.491 735.528,124.058 733.872,125.657C729.144,129.591 723.824,132.664 717.912,134.877C712.002,137.09 706.564,138.627 701.598,139.488C698.288,140.102 694.624,140.164 690.604,139.672C686.584,139.18 683.392,138.197 681.028,136.721C678.428,134.754 677.778,132.756 679.078,130.728C680.378,128.699 682.566,126.732 685.64,124.827C688.714,122.921 692.26,121.108 696.278,119.386C700.298,117.665 703.844,116.128 706.918,114.776C704.79,113.547 700.652,112.04 694.506,110.258C688.358,108.475 682.034,106.508 675.532,104.356C669.028,102.205 663.178,99.9 657.976,97.441C652.774,94.982 649.938,92.523 649.464,90.064C648.518,87.359 649.168,84.747 651.414,82.227C653.66,79.706 656.97,77.493 661.344,75.588C665.72,73.682 670.802,72.268 676.596,71.346C682.388,70.424 688.474,70.209 694.858,70.7ZM691.666,133.955C694.268,134.57 697.224,134.569 700.534,133.955C703.844,133.34 706.976,132.449 709.932,131.281C712.888,130.113 715.488,128.822 717.734,127.408C719.98,125.994 721.458,124.734 722.166,123.628C722.876,122.644 722.226,121.569 720.216,120.401C718.206,119.233 716.138,118.28 714.01,117.542C711.408,118.526 708.454,119.786 705.144,121.323C701.834,122.859 698.938,124.427 696.454,126.025C693.972,127.623 692.14,129.16 690.958,130.636C689.776,132.111 690.012,133.217 691.666,133.955ZM825.726,74.573C825.49,75.311 824.958,76.847 824.132,79.183C823.304,81.519 822.418,84.255 821.472,87.39C820.526,90.525 819.698,93.813 818.99,97.256C818.28,100.698 817.866,103.957 817.748,107.03C817.63,110.103 817.984,112.716 818.812,114.868C819.64,117.019 820.998,118.341 822.89,118.833C828.328,120.185 833.884,119.724 839.558,117.45C845.234,115.175 851.854,111.702 859.42,107.03C860.128,107.03 860.188,107.522 859.596,108.505C859.006,109.489 858.06,110.565 856.76,111.733L852.858,115.236L849.844,117.542C847.952,118.771 845.232,120.154 841.686,121.691C838.14,123.228 834.356,124.457 830.338,125.379C826.318,126.301 822.476,126.701 818.812,126.578C815.146,126.455 812.132,125.348 809.768,123.258C808.586,121.783 807.876,119.97 807.64,117.818C807.402,115.667 807.402,113.484 807.64,111.271C807.876,109.058 808.23,107.03 808.704,105.186C809.176,103.342 809.53,101.989 809.768,101.129C804.802,105.923 799.128,110.472 792.744,114.775C786.36,119.078 780.094,122.459 773.946,124.918C767.8,127.377 762.126,128.699 756.924,128.883C751.722,129.068 747.702,127.5 744.866,124.181C743.21,120.984 743.21,117.388 744.866,113.392C746.52,109.396 749.002,105.8 752.312,102.604C757.278,98.178 762.48,94.121 767.918,90.432C773.356,86.744 779.148,83.609 785.296,81.027C791.444,78.445 797.886,76.571 804.624,75.403C811.364,74.235 818.396,73.958 825.726,74.573ZM759.052,121.414C761.416,121.66 765.2,120.738 770.402,118.648C775.604,116.558 781.04,113.638 786.716,109.888C792.39,106.138 797.532,101.774 802.144,96.795C806.754,91.815 809.768,86.559 811.186,81.027L807.108,81.027L800.902,82.133C791.918,85.207 784.232,88.803 777.85,92.922C771.466,97.04 766.5,101.036 762.954,104.909C759.406,108.782 757.278,112.255 756.57,115.328C755.86,118.402 756.688,120.431 759.052,121.414Z" fill="#1A1818"/>
<path d="M138.048,117.542C137.575,118.157 136.746,118.772 135.564,119.387C134.382,120.001 133.082,120.401 131.663,120.585C130.245,120.77 128.826,120.647 127.407,120.217C125.989,119.786 124.688,118.895 123.506,117.543C118.777,113.117 114.699,109.029 111.27,105.279C107.842,101.529 104.709,97.595 101.872,93.476C99.035,89.358 96.198,84.809 93.36,79.83C90.523,74.85 87.213,68.918 83.43,62.034C79.883,67.566 76.159,73.406 72.258,79.553C68.357,85.7 64.338,91.694 60.2,97.534C56.062,103.374 51.865,108.814 47.61,113.854C43.354,118.895 39.216,123.013 35.197,126.21C32.596,128.054 30.409,129.284 28.635,129.899C26.862,130.513 25.325,130.728 24.025,130.544C22.724,130.36 21.66,129.899 20.833,129.161C20.006,128.423 19.355,127.747 18.883,127.132C16.755,116.436 14.922,106.17 13.386,96.335C11.849,86.5 10.371,77.709 8.952,69.963C7.534,62.218 6.115,55.794 4.696,50.692C3.278,45.59 1.741,42.485 0.086,41.379C-0.387,39.166 1.091,37.506 4.52,36.4C7.948,35.293 11.317,35.047 14.627,35.662C15.573,35.785 16.519,37.814 17.465,41.748C18.411,45.682 19.297,50.569 20.125,56.409C20.952,62.249 21.78,68.611 22.607,75.496C23.434,82.381 24.262,88.743 25.089,94.583C25.917,100.423 26.626,105.279 27.217,109.152C27.808,113.025 28.458,114.961 29.168,114.961C29.877,115.822 31.355,115.33 33.601,113.486C35.847,111.641 38.448,108.906 41.403,105.279C44.358,101.652 47.55,97.349 50.979,92.37C54.407,87.391 57.836,82.258 61.264,76.971C64.692,71.685 67.943,66.429 71.017,61.204C74.09,55.979 76.81,51.276 79.174,47.096C80.356,45.744 81.42,44.821 82.366,44.33C83.312,43.838 85.322,43.776 88.396,44.145C90.051,44.514 91.351,45.436 92.297,46.911C93.243,48.387 93.953,50.231 94.425,52.444C94.898,54.657 95.489,57.116 96.199,59.821C96.908,62.525 97.972,65.23 99.39,67.935C100.573,70.271 102.109,73.191 104.001,76.695C105.892,80.199 107.961,83.795 110.207,87.483C112.453,91.171 114.817,94.706 117.3,98.087C119.783,101.468 122.442,104.142 125.28,106.109C126.698,106.724 128.412,105.463 130.422,102.328C132.432,99.193 134.501,94.983 136.629,89.696C138.757,84.409 140.825,78.447 142.835,71.808C144.845,65.169 146.559,58.714 147.978,52.444C149.396,46.174 150.401,40.488 150.992,35.385C151.584,30.283 151.524,26.564 150.815,24.228C150.815,22.753 150.992,21.708 151.347,21.093C151.702,20.479 151.997,20.018 152.234,19.71C152.47,19.403 152.588,19.126 152.588,18.88C152.588,18.634 152.352,18.143 151.879,17.405C151.406,16.913 151.584,16.329 152.411,15.653C153.238,14.977 154.302,14.392 155.603,13.901C156.903,13.409 158.322,13.101 159.859,12.978C161.395,12.855 162.755,13.101 163.937,13.716C164.646,14.208 165.001,15.283 165.001,16.943C165.001,18.603 164.824,20.724 164.469,23.306C164.114,25.887 163.641,28.899 163.05,32.342C162.459,35.784 162.045,39.534 161.809,43.591C160.153,49.861 158.439,56.316 156.666,62.955C154.893,69.594 153.06,76.141 151.169,82.595C149.278,89.05 147.209,95.289 144.963,101.313C142.717,107.338 140.412,112.747 138.048,117.542ZM194.793,76.602C195.502,76.479 197.512,76.14 200.822,75.587C204.132,75.033 206.852,74.941 208.98,75.31C215.836,75.187 221.096,76.109 224.762,78.076C228.426,80.043 228.722,83.855 225.648,89.51C221.156,95.78 215.186,101.005 207.738,105.185C200.29,109.366 191.483,113.361 181.315,117.172C183.68,120.369 187.227,122.152 191.955,122.52C196.684,122.889 201.648,122.49 206.85,121.322C212.052,120.154 217.136,118.586 222.1,116.619C227.066,114.652 231.086,112.931 234.16,111.456C239.124,109.243 243.086,107.368 246.04,105.831C248.996,104.294 252.128,102.419 255.438,100.206C256.148,99.96 256.562,99.991 256.68,100.299C256.798,100.606 256.738,101.067 256.502,101.682C256.266,102.296 255.912,103.157 255.438,104.263C254.73,105.124 254.02,105.893 253.31,106.569C252.602,107.245 251.596,107.983 250.296,108.782C248.996,109.581 247.282,110.534 245.154,111.64C243.026,112.747 240.424,114.222 237.35,116.066C233.804,117.787 230.376,119.478 227.066,121.138C223.756,122.797 220.268,124.242 216.604,125.471C212.938,126.701 208.92,127.562 204.546,128.053C200.17,128.545 195.147,128.545 189.472,128.053C184.744,127.193 180.96,126.271 178.123,125.287C175.286,124.304 173.099,123.289 171.562,122.244C170.025,121.199 168.902,120.246 168.193,119.386C167.483,118.525 167.011,117.787 166.774,117.173C165.592,114.714 165.119,111.395 165.356,107.214C165.592,103.034 167.957,97.625 172.449,90.986C175.523,87.543 178.833,84.623 182.38,82.226C185.926,79.829 190.064,77.954 194.793,76.602ZM179.188,109.243C182.262,108.383 185.865,107.184 190.003,105.647C194.141,104.11 198.042,102.327 201.706,100.299C205.372,98.27 208.564,96.027 211.282,93.568C214.002,91.109 215.48,88.527 215.716,85.822C216.426,83.978 216.308,82.687 215.362,81.95C214.888,81.581 214.416,81.396 213.944,81.396C209.924,80.413 205.904,80.72 201.884,82.319C197.865,83.917 194.201,86.191 190.89,89.142C187.58,92.093 184.802,95.381 182.556,99.008C180.31,102.635 179.188,106.047 179.188,109.243ZM275.654,92.646C281.092,93.261 286,93.753 290.374,94.122C294.748,94.491 299.122,94.829 303.496,95.136C307.87,95.444 312.716,95.72 318.036,95.966C323.356,96.212 329.682,96.519 337.01,96.888C339.138,98.118 340.558,99.132 341.266,99.931C341.976,100.73 342.922,101.99 344.104,103.711C336.538,102.974 329.682,102.42 323.534,102.052C317.386,101.683 311.298,101.375 305.27,101.13C299.24,100.884 293.034,100.668 286.65,100.484C280.266,100.3 273.172,100.023 265.37,99.654C265.134,105.924 265.37,111.488 266.08,116.344C266.788,121.2 266.788,125.595 266.08,129.53C264.662,129.653 263.538,129.53 262.71,129.161C261.882,128.792 261.114,128.362 260.406,127.87C259.696,127.378 258.928,126.856 258.1,126.302C257.272,125.749 256.15,125.349 254.73,125.104C255.44,108.137 255.322,92.523 254.376,78.262C253.43,64.001 253.194,50.354 253.666,37.322C253.666,34.863 253.726,32.066 253.844,28.931C253.962,25.796 254.02,22.722 254.02,19.71C254.02,16.698 253.902,13.993 253.666,11.596C253.43,9.198 252.956,7.569 252.248,6.709C253.902,5.725 255.498,5.11 257.036,4.865C258.572,4.619 261.35,4.434 265.37,4.311C265.842,19.31 265.842,34.126 265.37,48.756C264.896,63.385 264.896,77.279 265.37,90.434C269.388,88.835 273.644,86.868 278.138,84.532C282.63,82.196 286.826,79.922 290.728,77.709C294.628,75.496 297.998,73.56 300.836,71.9C303.672,70.24 305.446,69.349 306.156,69.226C308.284,70.209 310.47,71.039 312.716,71.715C314.962,72.392 316.086,72.668 316.086,72.545C310.174,75.988 304.028,79.645 297.644,83.518C291.26,87.391 283.93,90.433 275.654,92.646ZM417.162,74.573C416.926,75.311 416.394,76.847 415.568,79.183C414.74,81.519 413.854,84.255 412.908,87.39C411.962,90.525 411.134,93.813 410.424,97.256C409.716,100.698 409.302,103.957 409.184,107.03C409.066,110.103 409.42,112.716 410.248,114.868C411.074,117.019 412.434,118.341 414.326,118.833C419.764,120.185 425.32,119.724 430.994,117.45C436.668,115.175 443.29,111.702 450.856,107.03C451.564,107.03 451.624,107.522 451.032,108.505C450.442,109.489 449.496,110.565 448.194,111.733L444.294,115.236L441.28,117.542C439.388,118.771 436.668,120.154 433.122,121.691C429.576,123.228 425.792,124.457 421.772,125.379C417.754,126.301 413.912,126.701 410.246,126.578C406.582,126.455 403.568,125.348 401.202,123.258C400.02,121.783 399.312,119.97 399.074,117.818C398.838,115.667 398.838,113.484 399.074,111.271C399.312,109.058 399.666,107.03 400.138,105.186C400.612,103.342 400.966,101.989 401.202,101.129C396.238,105.923 390.564,110.472 384.18,114.775C377.796,119.078 371.53,122.459 365.382,124.918C359.236,127.377 353.562,128.699 348.36,128.883C343.158,129.068 339.138,127.5 336.3,124.181C334.646,120.984 334.646,117.388 336.3,113.392C337.956,109.396 340.438,105.8 343.748,102.604C348.714,98.178 353.916,94.121 359.354,90.432C364.792,86.744 370.584,83.609 376.732,81.027C382.88,78.445 389.322,76.571 396.06,75.403C402.798,74.235 409.832,73.958 417.162,74.573ZM350.488,121.414C352.852,121.66 356.636,120.738 361.836,118.648C367.038,116.558 372.476,113.638 378.152,109.888C383.826,106.138 388.968,101.774 393.578,96.795C398.19,91.815 401.204,86.559 402.622,81.027L398.544,81.027L392.338,82.133C383.354,85.207 375.668,88.803 369.284,92.922C362.9,97.04 357.936,101.036 354.39,104.909C350.842,108.782 348.714,112.255 348.006,115.328C347.296,118.402 348.124,120.431 350.488,121.414ZM518.594,77.155C519.776,81.704 521.018,86.499 522.32,91.54C523.62,96.581 524.742,101.437 525.688,106.109C526.634,110.781 527.226,115.022 527.462,118.834C527.698,122.645 527.462,125.565 526.754,127.594C526.044,129.622 524.626,130.483 522.498,130.175C520.37,129.868 517.296,127.932 513.276,124.366C513.276,115.883 512.508,107.861 510.97,100.3C509.434,92.739 507.484,85.147 505.12,77.525C499.682,77.525 494.362,77.064 489.16,76.142C483.958,75.219 479.23,74.174 474.974,73.006C470.718,71.839 467.348,70.609 464.866,69.318C462.382,68.027 461.142,66.952 461.142,66.091C462.796,66.337 465.398,66.644 468.944,67.013C472.49,67.382 476.214,67.72 480.116,68.027C484.016,68.335 487.918,68.581 491.82,68.765C495.72,68.949 498.854,69.042 501.218,69.042C499.8,63.509 498.44,58.53 497.14,54.104C495.838,49.678 494.538,45.375 493.238,41.195C491.938,37.015 490.636,32.742 489.336,28.378C488.036,24.014 486.794,19.126 485.612,13.717C478.282,12.118 470.894,10.643 463.446,9.291C455.998,7.938 448.846,6.402 441.99,4.681C441.516,3.943 441.162,3.42 440.926,3.113C440.688,2.806 440.63,2.529 440.748,2.283C440.866,2.037 441.22,1.761 441.812,1.453C442.404,1.146 443.408,0.685 444.826,0.07C446.718,-0.176 451.152,0.224 458.126,1.269C465.102,2.314 473.376,3.79 482.952,5.695C492.528,7.601 502.812,9.875 513.808,12.518C524.802,15.162 535.442,17.867 545.726,20.633C556.012,23.399 565.232,26.165 573.39,28.931C581.546,31.698 587.516,34.249 591.3,36.585C594.846,38.06 597.27,39.781 598.57,41.748C599.87,43.716 600.226,45.744 599.634,47.834C599.042,49.924 597.564,52.014 595.2,54.104C592.836,56.194 589.88,58.161 586.334,60.006C582.788,61.727 578.59,63.54 573.744,65.446C568.896,67.352 563.636,69.134 557.962,70.794C552.286,72.454 546.14,73.868 539.52,75.035C532.898,76.203 525.924,76.909 518.594,77.155ZM513.984,68.672C525.096,68.672 534.968,68.057 543.598,66.827C552.228,65.598 559.498,63.877 565.41,61.664C571.322,59.451 575.636,56.869 578.354,53.918C581.074,50.968 581.96,47.894 581.014,44.698C580.542,42.239 577.35,39.749 571.438,37.229C565.528,34.708 558.376,32.249 549.982,29.852C541.59,27.455 532.722,25.119 523.382,22.844C514.044,20.57 505.71,18.388 498.38,16.298C498.852,18.879 499.502,21.676 500.33,24.688C501.158,27.7 502.162,31.204 503.344,35.2C504.526,39.196 506.004,43.899 507.778,49.308C509.55,54.717 511.62,61.172 513.984,68.672ZM599.102,76.602C599.81,76.479 601.82,76.14 605.13,75.587C608.44,75.033 611.16,74.941 613.288,75.31C620.144,75.187 625.404,76.109 629.07,78.076C632.736,80.043 633.03,83.855 629.956,89.51C625.464,95.78 619.494,101.005 612.046,105.185C604.598,109.366 595.792,113.361 585.624,117.172C587.988,120.369 591.534,122.152 596.264,122.52C600.992,122.889 605.958,122.49 611.16,121.322C616.362,120.154 621.444,118.586 626.41,116.619C631.374,114.652 635.394,112.931 638.468,111.456C643.432,109.243 647.394,107.368 650.348,105.831C653.304,104.294 656.436,102.419 659.748,100.206C660.456,99.96 660.87,99.991 660.988,100.299C661.106,100.606 661.048,101.067 660.81,101.682C660.574,102.296 660.22,103.157 659.746,104.263C659.038,105.124 658.328,105.893 657.618,106.569C656.91,107.245 655.904,107.983 654.604,108.782C653.304,109.581 651.59,110.534 649.462,111.64C647.334,112.747 644.734,114.222 641.66,116.066C638.112,117.787 634.684,119.478 631.374,121.138C628.064,122.797 624.576,124.242 620.912,125.471C617.246,126.701 613.228,127.562 608.854,128.053C604.48,128.545 599.456,128.545 593.78,128.053C589.052,127.193 585.268,126.271 582.432,125.287C579.594,124.304 577.408,123.289 575.87,122.244C574.334,121.199 573.21,120.246 572.502,119.386C571.792,118.525 571.32,117.787 571.082,117.173C569.9,114.714 569.428,111.395 569.664,107.214C569.9,103.034 572.266,97.625 576.758,90.986C579.832,87.543 583.142,84.623 586.688,82.226C590.234,79.829 594.372,77.954 599.102,76.602ZM583.496,109.243C586.57,108.383 590.174,107.184 594.312,105.647C598.45,104.11 602.35,102.327 606.016,100.299C609.68,98.27 612.872,96.027 615.592,93.568C618.31,91.109 619.788,88.527 620.024,85.822C620.734,83.978 620.616,82.687 619.67,81.95C619.198,81.581 618.724,81.396 618.252,81.396C614.232,80.413 610.212,80.72 606.194,82.319C602.174,83.917 598.51,86.191 595.198,89.142C591.888,92.093 589.11,95.381 586.864,99.008C584.618,102.635 583.496,106.047 583.496,109.243ZM694.858,70.7C700.77,71.192 705.678,71.868 709.578,72.729C713.48,73.59 716.554,74.542 718.8,75.588C721.046,76.633 722.818,77.708 724.12,78.815C725.42,79.921 726.662,80.966 727.844,81.95C727.606,82.442 726.484,82.38 724.474,81.766C722.464,81.151 720.514,80.536 718.622,79.922C713.42,78.201 707.154,77.155 699.826,76.787C692.496,76.418 685.698,76.633 679.432,77.432C673.168,78.231 668.142,79.614 664.36,81.581C660.578,83.549 659.63,85.946 661.522,88.774C663.414,91.601 666.782,94.06 671.63,96.15C676.476,98.241 681.856,100.115 687.766,101.775C693.676,103.435 699.588,104.941 705.5,106.293C711.41,107.645 716.258,108.998 720.04,110.35C724.768,108.998 728.788,107.861 732.098,106.938C735.408,106.016 738.364,105.156 740.964,104.357C743.566,103.558 746.226,102.82 748.944,102.144C751.664,101.467 754.796,100.699 758.342,99.838C758.816,99.715 759.23,99.654 759.584,99.654C759.938,99.654 759.938,99.807 759.584,100.115C759.23,100.422 758.284,100.914 756.746,101.59C755.21,102.267 752.786,103.22 749.476,104.449C747.822,105.064 744.748,106.109 740.256,107.584C735.764,109.059 730.916,110.658 725.714,112.379C728.552,113.731 730.798,115.145 732.454,116.62C733.872,117.973 734.876,119.417 735.468,120.954C736.06,122.491 735.528,124.058 733.872,125.657C729.144,129.591 723.824,132.664 717.912,134.877C712.002,137.09 706.564,138.627 701.598,139.488C698.288,140.102 694.624,140.164 690.604,139.672C686.584,139.18 683.392,138.197 681.028,136.721C678.428,134.754 677.778,132.756 679.078,130.728C680.378,128.699 682.566,126.732 685.64,124.827C688.714,122.921 692.26,121.108 696.278,119.386C700.298,117.665 703.844,116.128 706.918,114.776C704.79,113.547 700.652,112.04 694.506,110.258C688.358,108.475 682.034,106.508 675.532,104.356C669.028,102.205 663.178,99.9 657.976,97.441C652.774,94.982 649.938,92.523 649.464,90.064C648.518,87.359 649.168,84.747 651.414,82.227C653.66,79.706 656.97,77.493 661.344,75.588C665.72,73.682 670.802,72.268 676.596,71.346C682.388,70.424 688.474,70.209 694.858,70.7ZM691.666,133.955C694.268,134.57 697.224,134.569 700.534,133.955C703.844,133.34 706.976,132.449 709.932,131.281C712.888,130.113 715.488,128.822 717.734,127.408C719.98,125.994 721.458,124.734 722.166,123.628C722.876,122.644 722.226,121.569 720.216,120.401C718.206,119.233 716.138,118.28 714.01,117.542C711.408,118.526 708.454,119.786 705.144,121.323C701.834,122.859 698.938,124.427 696.454,126.025C693.972,127.623 692.14,129.16 690.958,130.636C689.776,132.111 690.012,133.217 691.666,133.955ZM825.726,74.573C825.49,75.311 824.958,76.847 824.132,79.183C823.304,81.519 822.418,84.255 821.472,87.39C820.526,90.525 819.698,93.813 818.99,97.256C818.28,100.698 817.866,103.957 817.748,107.03C817.63,110.103 817.984,112.716 818.812,114.868C819.64,117.019 820.998,118.341 822.89,118.833C828.328,120.185 833.884,119.724 839.558,117.45C845.234,115.175 851.854,111.702 859.42,107.03C860.128,107.03 860.188,107.522 859.596,108.505C859.006,109.489 858.06,110.565 856.76,111.733L852.858,115.236L849.844,117.542C847.952,118.771 845.232,120.154 841.686,121.691C838.14,123.228 834.356,124.457 830.338,125.379C826.318,126.301 822.476,126.701 818.812,126.578C815.146,126.455 812.132,125.348 809.768,123.258C808.586,121.783 807.876,119.97 807.64,117.818C807.402,115.667 807.402,113.484 807.64,111.271C807.876,109.058 808.23,107.03 808.704,105.186C809.176,103.342 809.53,101.989 809.768,101.129C804.802,105.923 799.128,110.472 792.744,114.775C786.36,119.078 780.094,122.459 773.946,124.918C767.8,127.377 762.126,128.699 756.924,128.883C751.722,129.068 747.702,127.5 744.866,124.181C743.21,120.984 743.21,117.388 744.866,113.392C746.52,109.396 749.002,105.8 752.312,102.604C757.278,98.178 762.48,94.121 767.918,90.432C773.356,86.744 779.148,83.609 785.296,81.027C791.444,78.445 797.886,76.571 804.624,75.403C811.364,74.235 818.396,73.958 825.726,74.573ZM759.052,121.414C761.416,121.66 765.2,120.738 770.402,118.648C775.604,116.558 781.04,113.638 786.716,109.888C792.39,106.138 797.532,101.774 802.144,96.795C806.754,91.815 809.768,86.559 811.186,81.027L807.108,81.027L800.902,82.133C791.918,85.207 784.232,88.803 777.85,92.922C771.466,97.04 766.5,101.036 762.954,104.909C759.406,108.782 757.278,112.255 756.57,115.328C755.86,118.402 756.688,120.431 759.052,121.414Z" fill="#000000" fill-opacity="0.2"/>
<path d="M138.048,117.542C137.575,118.157 136.746,118.772 135.564,119.387C134.382,120.001 133.082,120.401 131.663,120.585C130.245,120.77 128.826,120.647 127.407,120.217C125.989,119.786 124.688,118.895 123.506,117.543C118.777,113.117 114.699,109.029 111.27,105.279C107.842,101.529 104.709,97.595 101.872,93.476C99.035,89.358 96.198,84.809 93.36,79.83C90.523,74.85 87.213,68.918 83.43,62.034C79.883,67.566 76.159,73.406 72.258,79.553C68.357,85.7 64.338,91.694 60.2,97.534C56.062,103.374 51.865,108.814 47.61,113.854C43.354,118.895 39.216,123.013 35.197,126.21C32.596,128.054 30.409,129.284 28.635,129.899C26.862,130.513 25.325,130.728 24.025,130.544C22.724,130.36 21.66,129.899 20.833,129.161C20.006,128.423 19.355,127.747 18.883,127.132C16.755,116.436 14.922,106.17 13.386,96.335C11.849,86.5 10.371,77.709 8.952,69.963C7.534,62.218 6.115,55.794 4.696,50.692C3.278,45.59 1.741,42.485 0.086,41.379C-0.387,39.166 1.091,37.506 4.52,36.4C7.948,35.293 11.317,35.047 14.627,35.662C15.573,35.785 16.519,37.814 17.465,41.748C18.411,45.682 19.297,50.569 20.125,56.409C20.952,62.249 21.78,68.611 22.607,75.496C23.434,82.381 24.262,88.743 25.089,94.583C25.917,100.423 26.626,105.279 27.217,109.152C27.808,113.025 28.458,114.961 29.168,114.961C29.877,115.822 31.355,115.33 33.601,113.486C35.847,111.641 38.448,108.906 41.403,105.279C44.358,101.652 47.55,97.349 50.979,92.37C54.407,87.391 57.836,82.258 61.264,76.971C64.692,71.685 67.943,66.429 71.017,61.204C74.09,55.979 76.81,51.276 79.174,47.096C80.356,45.744 81.42,44.821 82.366,44.33C83.312,43.838 85.322,43.776 88.396,44.145C90.051,44.514 91.351,45.436 92.297,46.911C93.243,48.387 93.953,50.231 94.425,52.444C94.898,54.657 95.489,57.116 96.199,59.821C96.908,62.525 97.972,65.23 99.39,67.935C100.573,70.271 102.109,73.191 104.001,76.695C105.892,80.199 107.961,83.795 110.207,87.483C112.453,91.171 114.817,94.706 117.3,98.087C119.783,101.468 122.442,104.142 125.28,106.109C126.698,106.724 128.412,105.463 130.422,102.328C132.432,99.193 134.501,94.983 136.629,89.696C138.757,84.409 140.825,78.447 142.835,71.808C144.845,65.169 146.559,58.714 147.978,52.444C149.396,46.174 150.401,40.488 150.992,35.385C151.584,30.283 151.524,26.564 150.815,24.228C150.815,22.753 150.992,21.708 151.347,21.093C151.702,20.479 151.997,20.018 152.234,19.71C152.47,19.403 152.588,19.126 152.588,18.88C152.588,18.634 152.352,18.143 151.879,17.405C151.406,16.913 151.584,16.329 152.411,15.653C153.238,14.977 154.302,14.392 155.603,13.901C156.903,13.409 158.322,13.101 159.859,12.978C161.395,12.855 162.755,13.101 163.937,13.716C164.646,14.208 165.001,15.283 165.001,16.943C165.001,18.603 164.824,20.724 164.469,23.306C164.114,25.887 163.641,28.899 163.05,32.342C162.459,35.784 162.045,39.534 161.809,43.591C160.153,49.861 158.439,56.316 156.666,62.955C154.893,69.594 153.06,76.141 151.169,82.595C149.278,89.05 147.209,95.289 144.963,101.313C142.717,107.338 140.412,112.747 138.048,117.542ZM194.793,76.602C195.502,76.479 197.512,76.14 200.822,75.587C204.132,75.033 206.852,74.941 208.98,75.31C215.836,75.187 221.096,76.109 224.762,78.076C228.426,80.043 228.722,83.855 225.648,89.51C221.156,95.78 215.186,101.005 207.738,105.185C200.29,109.366 191.483,113.361 181.315,117.172C183.68,120.369 187.227,122.152 191.955,122.52C196.684,122.889 201.648,122.49 206.85,121.322C212.052,120.154 217.136,118.586 222.1,116.619C227.066,114.652 231.086,112.931 234.16,111.456C239.124,109.243 243.086,107.368 246.04,105.831C248.996,104.294 252.128,102.419 255.438,100.206C256.148,99.96 256.562,99.991 256.68,100.299C256.798,100.606 256.738,101.067 256.502,101.682C256.266,102.296 255.912,103.157 255.438,104.263C254.73,105.124 254.02,105.893 253.31,106.569C252.602,107.245 251.596,107.983 250.296,108.782C248.996,109.581 247.282,110.534 245.154,111.64C243.026,112.747 240.424,114.222 237.35,116.066C233.804,117.787 230.376,119.478 227.066,121.138C223.756,122.797 220.268,124.242 216.604,125.471C212.938,126.701 208.92,127.562 204.546,128.053C200.17,128.545 195.147,128.545 189.472,128.053C184.744,127.193 180.96,126.271 178.123,125.287C175.286,124.304 173.099,123.289 171.562,122.244C170.025,121.199 168.902,120.246 168.193,119.386C167.483,118.525 167.011,117.787 166.774,117.173C165.592,114.714 165.119,111.395 165.356,107.214C165.592,103.034 167.957,97.625 172.449,90.986C175.523,87.543 178.833,84.623 182.38,82.226C185.926,79.829 190.064,77.954 194.793,76.602ZM179.188,109.243C182.262,108.383 185.865,107.184 190.003,105.647C194.141,104.11 198.042,102.327 201.706,100.299C205.372,98.27 208.564,96.027 211.282,93.568C214.002,91.109 215.48,88.527 215.716,85.822C216.426,83.978 216.308,82.687 215.362,81.95C214.888,81.581 214.416,81.396 213.944,81.396C209.924,80.413 205.904,80.72 201.884,82.319C197.865,83.917 194.201,86.191 190.89,89.142C187.58,92.093 184.802,95.381 182.556,99.008C180.31,102.635 179.188,106.047 179.188,109.243ZM275.654,92.646C281.092,93.261 286,93.753 290.374,94.122C294.748,94.491 299.122,94.829 303.496,95.136C307.87,95.444 312.716,95.72 318.036,95.966C323.356,96.212 329.682,96.519 337.01,96.888C339.138,98.118 340.558,99.132 341.266,99.931C341.976,100.73 342.922,101.99 344.104,103.711C336.538,102.974 329.682,102.42 323.534,102.052C317.386,101.683 311.298,101.375 305.27,101.13C299.24,100.884 293.034,100.668 286.65,100.484C280.266,100.3 273.172,100.023 265.37,99.654C265.134,105.924 265.37,111.488 266.08,116.344C266.788,121.2 266.788,125.595 266.08,129.53C264.662,129.653 263.538,129.53 262.71,129.161C261.882,128.792 261.114,128.362 260.406,127.87C259.696,127.378 258.928,126.856 258.1,126.302C257.272,125.749 256.15,125.349 254.73,125.104C255.44,108.137 255.322,92.523 254.376,78.262C253.43,64.001 253.194,50.354 253.666,37.322C253.666,34.863 253.726,32.066 253.844,28.931C253.962,25.796 254.02,22.722 254.02,19.71C254.02,16.698 253.902,13.993 253.666,11.596C253.43,9.198 252.956,7.569 252.248,6.709C253.902,5.725 255.498,5.11 257.036,4.865C258.572,4.619 261.35,4.434 265.37,4.311C265.842,19.31 265.842,34.126 265.37,48.756C264.896,63.385 264.896,77.279 265.37,90.434C269.388,88.835 273.644,86.868 278.138,84.532C282.63,82.196 286.826,79.922 290.728,77.709C294.628,75.496 297.998,73.56 300.836,71.9C303.672,70.24 305.446,69.349 306.156,69.226C308.284,70.209 310.47,71.039 312.716,71.715C314.962,72.392 316.086,72.668 316.086,72.545C310.174,75.988 304.028,79.645 297.644,83.518C291.26,87.391 283.93,90.433 275.654,92.646ZM417.162,74.573C416.926,75.311 416.394,76.847 415.568,79.183C414.74,81.519 413.854,84.255 412.908,87.39C411.962,90.525 411.134,93.813 410.424,97.256C409.716,100.698 409.302,103.957 409.184,107.03C409.066,110.103 409.42,112.716 410.248,114.868C411.074,117.019 412.434,118.341 414.326,118.833C419.764,120.185 425.32,119.724 430.994,117.45C436.668,115.175 443.29,111.702 450.856,107.03C451.564,107.03 451.624,107.522 451.032,108.505C450.442,109.489 449.496,110.565 448.194,111.733L444.294,115.236L441.28,117.542C439.388,118.771 436.668,120.154 433.122,121.691C429.576,123.228 425.792,124.457 421.772,125.379C417.754,126.301 413.912,126.701 410.246,126.578C406.582,126.455 403.568,125.348 401.202,123.258C400.02,121.783 399.312,119.97 399.074,117.818C398.838,115.667 398.838,113.484 399.074,111.271C399.312,109.058 399.666,107.03 400.138,105.186C400.612,103.342 400.966,101.989 401.202,101.129C396.238,105.923 390.564,110.472 384.18,114.775C377.796,119.078 371.53,122.459 365.382,124.918C359.236,127.377 353.562,128.699 348.36,128.883C343.158,129.068 339.138,127.5 336.3,124.181C334.646,120.984 334.646,117.388 336.3,113.392C337.956,109.396 340.438,105.8 343.748,102.604C348.714,98.178 353.916,94.121 359.354,90.432C364.792,86.744 370.584,83.609 376.732,81.027C382.88,78.445 389.322,76.571 396.06,75.403C402.798,74.235 409.832,73.958 417.162,74.573ZM350.488,121.414C352.852,121.66 356.636,120.738 361.836,118.648C367.038,116.558 372.476,113.638 378.152,109.888C383.826,106.138 388.968,101.774 393.578,96.795C398.19,91.815 401.204,86.559 402.622,81.027L398.544,81.027L392.338,82.133C383.354,85.207 375.668,88.803 369.284,92.922C362.9,97.04 357.936,101.036 354.39,104.909C350.842,108.782 348.714,112.255 348.006,115.328C347.296,118.402 348.124,120.431 350.488,121.414ZM518.594,77.155C519.776,81.704 521.018,86.499 522.32,91.54C523.62,96.581 524.742,101.437 525.688,106.109C526.634,110.781 527.226,115.022 527.462,118.834C527.698,122.645 527.462,125.565 526.754,127.594C526.044,129.622 524.626,130.483 522.498,130.175C520.37,129.868 517.296,127.932 513.276,124.366C513.276,115.883 512.508,107.861 510.97,100.3C509.434,92.739 507.484,85.147 505.12,77.525C499.682,77.525 494.362,77.064 489.16,76.142C483.958,75.219 479.23,74.174 474.974,73.006C470.718,71.839 467.348,70.609 464.866,69.318C462.382,68.027 461.142,66.952 461.142,66.091C462.796,66.337 465.398,66.644 468.944,67.013C472.49,67.382 476.214,67.72 480.116,68.027C484.016,68.335 487.918,68.581 491.82,68.765C495.72,68.949 498.854,69.042 501.218,69.042C499.8,63.509 498.44,58.53 497.14,54.104C495.838,49.678 494.538,45.375 493.238,41.195C491.938,37.015 490.636,32.742 489.336,28.378C488.036,24.014 486.794,19.126 485.612,13.717C478.282,12.118 470.894,10.643 463.446,9.291C455.998,7.938 448.846,6.402 441.99,4.681C441.516,3.943 441.162,3.42 440.926,3.113C440.688,2.806 440.63,2.529 440.748,2.283C440.866,2.037 441.22,1.761 441.812,1.453C442.404,1.146 443.408,0.685 444.826,0.07C446.718,-0.176 451.152,0.224 458.126,1.269C465.102,2.314 473.376,3.79 482.952,5.695C492.528,7.601 502.812,9.875 513.808,12.518C524.802,15.162 535.442,17.867 545.726,20.633C556.012,23.399 565.232,26.165 573.39,28.931C581.546,31.698 587.516,34.249 591.3,36.585C594.846,38.06 597.27,39.781 598.57,41.748C599.87,43.716 600.226,45.744 599.634,47.834C599.042,49.924 597.564,52.014 595.2,54.104C592.836,56.194 589.88,58.161 586.334,60.006C582.788,61.727 578.59,63.54 573.744,65.446C568.896,67.352 563.636,69.134 557.962,70.794C552.286,72.454 546.14,73.868 539.52,75.035C532.898,76.203 525.924,76.909 518.594,77.155ZM513.984,68.672C525.096,68.672 534.968,68.057 543.598,66.827C552.228,65.598 559.498,63.877 565.41,61.664C571.322,59.451 575.636,56.869 578.354,53.918C581.074,50.968 581.96,47.894 581.014,44.698C580.542,42.239 577.35,39.749 571.438,37.229C565.528,34.708 558.376,32.249 549.982,29.852C541.59,27.455 532.722,25.119 523.382,22.844C514.044,20.57 505.71,18.388 498.38,16.298C498.852,18.879 499.502,21.676 500.33,24.688C501.158,27.7 502.162,31.204 503.344,35.2C504.526,39.196 506.004,43.899 507.778,49.308C509.55,54.717 511.62,61.172 513.984,68.672ZM599.102,76.602C599.81,76.479 601.82,76.14 605.13,75.587C608.44,75.033 611.16,74.941 613.288,75.31C620.144,75.187 625.404,76.109 629.07,78.076C632.736,80.043 633.03,83.855 629.956,89.51C625.464,95.78 619.494,101.005 612.046,105.185C604.598,109.366 595.792,113.361 585.624,117.172C587.988,120.369 591.534,122.152 596.264,122.52C600.992,122.889 605.958,122.49 611.16,121.322C616.362,120.154 621.444,118.586 626.41,116.619C631.374,114.652 635.394,112.931 638.468,111.456C643.432,109.243 647.394,107.368 650.348,105.831C653.304,104.294 656.436,102.419 659.748,100.206C660.456,99.96 660.87,99.991 660.988,100.299C661.106,100.606 661.048,101.067 660.81,101.682C660.574,102.296 660.22,103.157 659.746,104.263C659.038,105.124 658.328,105.893 657.618,106.569C656.91,107.245 655.904,107.983 654.604,108.782C653.304,109.581 651.59,110.534 649.462,111.64C647.334,112.747 644.734,114.222 641.66,116.066C638.112,117.787 634.684,119.478 631.374,121.138C628.064,122.797 624.576,124.242 620.912,125.471C617.246,126.701 613.228,127.562 608.854,128.053C604.48,128.545 599.456,128.545 593.78,128.053C589.052,127.193 585.268,126.271 582.432,125.287C579.594,124.304 577.408,123.289 575.87,122.244C574.334,121.199 573.21,120.246 572.502,119.386C571.792,118.525 571.32,117.787 571.082,117.173C569.9,114.714 569.428,111.395 569.664,107.214C569.9,103.034 572.266,97.625 576.758,90.986C579.832,87.543 583.142,84.623 586.688,82.226C590.234,79.829 594.372,77.954 599.102,76.602ZM583.496,109.243C586.57,108.383 590.174,107.184 594.312,105.647C598.45,104.11 602.35,102.327 606.016,100.299C609.68,98.27 612.872,96.027 615.592,93.568C618.31,91.109 619.788,88.527 620.024,85.822C620.734,83.978 620.616,82.687 619.67,81.95C619.198,81.581 618.724,81.396 618.252,81.396C614.232,80.413 610.212,80.72 606.194,82.319C602.174,83.917 598.51,86.191 595.198,89.142C591.888,92.093 589.11,95.381 586.864,99.008C584.618,102.635 583.496,106.047 583.496,109.243ZM694.858,70.7C700.77,71.192 705.678,71.868 709.578,72.729C713.48,73.59 716.554,74.542 718.8,75.588C721.046,76.633 722.818,77.708 724.12,78.815C725.42,79.921 726.662,80.966 727.844,81.95C727.606,82.442 726.484,82.38 724.474,81.766C722.464,81.151 720.514,80.536 718.622,79.922C713.42,78.201 707.154,77.155 699.826,76.787C692.496,76.418 685.698,76.633 679.432,77.432C673.168,78.231 668.142,79.614 664.36,81.581C660.578,83.549 659.63,85.946 661.522,88.774C663.414,91.601 666.782,94.06 671.63,96.15C676.476,98.241 681.856,100.115 687.766,101.775C693.676,103.435 699.588,104.941 705.5,106.293C711.41,107.645 716.258,108.998 720.04,110.35C724.768,108.998 728.788,107.861 732.098,106.938C735.408,106.016 738.364,105.156 740.964,104.357C743.566,103.558 746.226,102.82 748.944,102.144C751.664,101.467 754.796,100.699 758.342,99.838C758.816,99.715 759.23,99.654 759.584,99.654C759.938,99.654 759.938,99.807 759.584,100.115C759.23,100.422 758.284,100.914 756.746,101.59C755.21,102.267 752.786,103.22 749.476,104.449C747.822,105.064 744.748,106.109 740.256,107.584C735.764,109.059 730.916,110.658 725.714,112.379C728.552,113.731 730.798,115.145 732.454,116.62C733.872,117.973 734.876,119.417 735.468,120.954C736.06,122.491 735.528,124.058 733.872,125.657C729.144,129.591 723.824,132.664 717.912,134.877C712.002,137.09 706.564,138.627 701.598,139.488C698.288,140.102 694.624,140.164 690.604,139.672C686.584,139.18 683.392,138.197 681.028,136.721C678.428,134.754 677.778,132.756 679.078,130.728C680.378,128.699 682.566,126.732 685.64,124.827C688.714,122.921 692.26,121.108 696.278,119.386C700.298,117.665 703.844,116.128 706.918,114.776C704.79,113.547 700.652,112.04 694.506,110.258C688.358,108.475 682.034,106.508 675.532,104.356C669.028,102.205 663.178,99.9 657.976,97.441C652.774,94.982 649.938,92.523 649.464,90.064C648.518,87.359 649.168,84.747 651.414,82.227C653.66,79.706 656.97,77.493 661.344,75.588C665.72,73.682 670.802,72.268 676.596,71.346C682.388,70.424 688.474,70.209 694.858,70.7ZM691.666,133.955C694.268,134.57 697.224,134.569 700.534,133.955C703.844,133.34 706.976,132.449 709.932,131.281C712.888,130.113 715.488,128.822 717.734,127.408C719.98,125.994 721.458,124.734 722.166,123.628C722.876,122.644 722.226,121.569 720.216,120.401C718.206,119.233 716.138,118.28 714.01,117.542C711.408,118.526 708.454,119.786 705.144,121.323C701.834,122.859 698.938,124.427 696.454,126.025C693.972,127.623 692.14,129.16 690.958,130.636C689.776,132.111 690.012,133.217 691.666,133.955ZM825.726,74.573C825.49,75.311 824.958,76.847 824.132,79.183C823.304,81.519 822.418,84.255 821.472,87.39C820.526,90.525 819.698,93.813 818.99,97.256C818.28,100.698 817.866,103.957 817.748,107.03C817.63,110.103 817.984,112.716 818.812,114.868C819.64,117.019 820.998,118.341 822.89,118.833C828.328,120.185 833.884,119.724 839.558,117.45C845.234,115.175 851.854,111.702 859.42,107.03C860.128,107.03 860.188,107.522 859.596,108.505C859.006,109.489 858.06,110.565 856.76,111.733L852.858,115.236L849.844,117.542C847.952,118.771 845.232,120.154 841.686,121.691C838.14,123.228 834.356,124.457 830.338,125.379C826.318,126.301 822.476,126.701 818.812,126.578C815.146,126.455 812.132,125.348 809.768,123.258C808.586,121.783 807.876,119.97 807.64,117.818C807.402,115.667 807.402,113.484 807.64,111.271C807.876,109.058 808.23,107.03 808.704,105.186C809.176,103.342 809.53,101.989 809.768,101.129C804.802,105.923 799.128,110.472 792.744,114.775C786.36,119.078 780.094,122.459 773.946,124.918C767.8,127.377 762.126,128.699 756.924,128.883C751.722,129.068 747.702,127.5 744.866,124.181C743.21,120.984 743.21,117.388 744.866,113.392C746.52,109.396 749.002,105.8 752.312,102.604C757.278,98.178 762.48,94.121 767.918,90.432C773.356,86.744 779.148,83.609 785.296,81.027C791.444,78.445 797.886,76.571 804.624,75.403C811.364,74.235 818.396,73.958 825.726,74.573ZM759.052,121.414C761.416,121.66 765.2,120.738 770.402,118.648C775.604,116.558 781.04,113.638 786.716,109.888C792.39,106.138 797.532,101.774 802.144,96.795C806.754,91.815 809.768,86.559 811.186,81.027L807.108,81.027L800.902,82.133C791.918,85.207 784.232,88.803 777.85,92.922C771.466,97.04 766.5,101.036 762.954,104.909C759.406,108.782 757.278,112.255 756.57,115.328C755.86,118.402 756.688,120.431 759.052,121.414Z" stroke="#F12424" stroke-width="1" stroke-miterlimit="3.999327"/>
</svg>
