<svg width="286" height="328" viewBox="0 0 286 328" fill="none" xmlns="http://www.w3.org/2000/svg" xmlns:xlink="http://www.w3.org/1999/xlink">
<path d="M20.658,300.63L57.384,300.63C60.139,300.63 61.975,298.52 61.975,295.354L61.975,163.5C61.975,160.335 60.139,158.226 57.384,158.226L20.658,158.226C17.904,158.226 16.068,160.335 16.068,163.5L16.068,295.354C16.068,298.52 17.904,300.63 20.658,300.63ZM25.249,168.774L52.793,168.774L52.793,290.08L25.249,290.08L25.249,168.774ZM227.24,300.63L263.966,300.63C266.722,300.63 268.558,298.52 268.558,295.354L268.558,5.274C268.558,2.11 266.722,0 263.966,0L227.24,0C224.486,0 222.65,2.11 222.65,5.274L222.65,295.354C222.65,298.52 224.486,300.63 227.24,300.63ZM231.832,10.548L259.376,10.548L259.376,290.08L231.832,290.08L231.832,10.548ZM158.38,300.63L195.106,300.63C197.86,300.63 199.697,298.52 199.697,295.354L199.697,58.016C199.697,54.852 197.86,52.742 195.106,52.742L158.38,52.742C155.626,52.742 153.789,54.852 153.789,58.016L153.789,295.354C153.789,298.52 155.626,300.63 158.38,300.63ZM162.971,63.29L190.515,63.29L190.515,290.08L162.971,290.08L162.971,63.29ZM89.519,105.484C86.765,105.484 84.928,107.594 84.928,110.758L84.928,295.354C84.928,298.52 86.765,300.63 89.519,300.63L126.245,300.63C128.999,300.63 130.836,298.52 130.836,295.354L130.836,110.758C130.836,107.594 128.999,105.484 126.245,105.484L89.519,105.484ZM121.654,290.08L94.11,290.08L94.11,116.032L121.654,116.032L121.654,290.08ZM284.624,321.726C284.624,324.89 282.788,327 280.034,327L4.591,327C1.836,327 0,324.89 0,321.726C0,318.562 1.836,316.452 4.591,316.452L280.034,316.452C282.788,316.452 284.624,318.562 284.624,321.726ZM30.299,117.615C28.922,115.505 29.381,111.813 31.217,110.231L131.754,27.953L120.736,26.371C118.441,25.844 116.604,23.206 116.604,20.569C117.064,17.932 119.359,15.823 121.654,15.823L144.608,19.515C145.067,19.515 145.067,19.515 145.526,20.042C145.526,20.042 145.985,20.042 145.985,20.569L146.444,21.097C146.903,21.624 146.903,21.624 147.362,22.152C147.362,22.152 147.362,22.679 147.821,22.679C147.821,23.206 148.28,23.206 148.28,23.734C148.28,24.261 148.28,24.261 148.28,24.789C148.28,25.316 148.28,25.316 148.28,25.844L145.067,52.215C144.608,54.852 142.772,56.961 140.476,56.961L140.017,56.961C137.722,56.434 135.885,53.797 135.885,51.16L137.722,36.919L36.267,118.669C35.349,119.197 34.43,119.724 33.512,119.724C32.594,119.724 30.758,118.669 30.299,117.615Z" fill="#141313" stroke="#546F40" stroke-width="1" stroke-miterlimit="3.999327"/>
</svg>
