<svg width="40" height="38" viewBox="0 0 40 38" fill="none" xmlns="http://www.w3.org/2000/svg" xmlns:xlink="http://www.w3.org/1999/xlink">
<path d="M10,28L10,27C9.735,27 9.48,27.105 9.293,27.293L10,28ZM2,36L1,36C1,36.404 1.244,36.769 1.617,36.924C1.991,37.079 2.421,36.993 2.707,36.707L2,36ZM6,0L6,-1L6,0ZM34,0L34,-1L34,0ZM37,24C37,24.796 36.684,25.559 36.121,26.121L37.536,27.536C38.473,26.598 39,25.326 39,24L37,24ZM36.121,26.121C35.559,26.684 34.796,27 34,27L34,29C35.326,29 36.598,28.473 37.536,27.536L36.121,26.121ZM34,27L10,27L10,29L34,29L34,27ZM9.293,27.293L1.293,35.293L2.707,36.707L10.707,28.707L9.293,27.293ZM3,36L3,4L1,4L1,36L3,36ZM3,4C3,3.204 3.316,2.441 3.879,1.879L2.464,0.464C1.527,1.402 1,2.674 1,4L3,4ZM3.879,1.879C4.441,1.316 5.204,1 6,1L6,-1C4.674,-1 3.402,-0.473 2.464,0.464L3.879,1.879ZM6,1L34,1L34,-1L6,-1L6,1ZM34,1C34.796,1 35.559,1.316 36.121,1.879L37.536,0.464C36.598,-0.473 35.326,-1 34,-1L34,1ZM36.121,1.879C36.684,2.441 37,3.204 37,4L39,4C39,2.674 38.473,1.402 37.536,0.464L36.121,1.879ZM37,4L37,24L39,24L39,4L37,4Z" fill="#000000"/>
</svg>
