<svg width="40" height="42" viewBox="0 0 40 42" fill="none" xmlns="http://www.w3.org/2000/svg" xmlns:xlink="http://www.w3.org/1999/xlink">
<path d="M39.949,39.754C39.949,40.343 39.718,40.908 39.306,41.325C38.895,41.742 38.336,41.976 37.754,41.976L2.636,41.976C2.054,41.976 1.496,41.742 1.084,41.325C0.673,40.908 0.441,40.343 0.441,39.754L0.441,16.392C0.441,16.054 0.517,15.719 0.664,15.415C0.811,15.111 1.025,14.844 1.289,14.636L18.848,0.806C19.233,0.503 19.707,0.338 20.195,0.338C20.683,0.338 21.158,0.503 21.543,0.806L39.102,14.636C39.366,14.844 39.579,15.111 39.726,15.415C39.873,15.719 39.949,16.054 39.949,16.392L39.949,39.754L39.949,39.754ZM9.221,28.64L9.221,33.085L31.17,33.085L31.17,28.64L9.221,28.64Z" fill="#000000"/>
</svg>
