<svg width="40" height="36" viewBox="0 0 40 36" fill="none" xmlns="http://www.w3.org/2000/svg" xmlns:xlink="http://www.w3.org/1999/xlink">
<path d="M0,1.986C0.004,1.461 0.214,0.958 0.585,0.586C0.956,0.215 1.459,0.004 1.984,0L38.016,0C39.112,0 40,0.89 40,1.986L40,34.014C39.996,34.539 39.786,35.042 39.415,35.414C39.044,35.785 38.541,35.996 38.016,36L1.984,36C1.458,35.999 0.953,35.79 0.581,35.418C0.209,35.045 0,34.54 0,34.014L0,1.986ZM4,4L4,32L36,32L36,4L4,4ZM8,8L20,8L20,20L8,20L8,8ZM12,12L12,16L16,16L16,12L12,12ZM8,24L32,24L32,28L8,28L8,24ZM24,8L32,8L32,12L24,12L24,8ZM24,16L32,16L32,20L24,20L24,16Z" fill="#000000"/>
</svg>
