<svg width="44" height="42" viewBox="0 0 44 42" fill="none" xmlns="http://www.w3.org/2000/svg" xmlns:xlink="http://www.w3.org/1999/xlink">
<path d="M-0.369,3.108C-0.365,2.524 -0.135,1.965 0.273,1.552C0.68,1.139 1.232,0.905 1.808,0.9L41.351,0.9C42.554,0.9 43.528,1.89 43.528,3.108L43.528,38.703C43.524,39.286 43.294,39.845 42.886,40.258C42.479,40.671 41.927,40.905 41.351,40.91L1.808,40.91C1.23,40.909 0.677,40.676 0.268,40.263C-0.14,39.849 -0.369,39.288 -0.369,38.703L-0.369,3.108ZM8.41,27.573L8.41,32.019L34.749,32.019L34.749,27.573L8.41,27.573ZM8.41,9.791L8.41,23.128L21.58,23.128L21.58,9.791L8.41,9.791ZM25.969,9.791L25.969,14.237L34.749,14.237L34.749,9.791L25.969,9.791ZM25.969,18.682L25.969,23.128L34.749,23.128L34.749,18.682L25.969,18.682ZM12.8,14.237L17.19,14.237L17.19,18.682L12.8,18.682L12.8,14.237Z" fill="#000000"/>
</svg>
