<svg width="44" height="46" viewBox="0 0 44 46" fill="none" xmlns="http://www.w3.org/2000/svg" xmlns:xlink="http://www.w3.org/1999/xlink">
<path d="M21.579,-0.185C33.702,-0.185 43.528,9.766 43.528,22.043C43.528,34.319 33.702,44.27 21.579,44.27C9.457,44.27 -0.369,34.319 -0.369,22.043L4.02,22.043C4.02,31.863 11.882,39.825 21.579,39.825C31.276,39.825 39.138,31.863 39.138,22.043C39.138,12.223 31.276,4.261 21.579,4.261C16.171,4.261 11.334,6.737 8.114,10.629L12.8,15.374L-0.369,15.374L-0.369,2.038L5.001,7.475C9.025,2.785 14.96,-0.185 21.579,-0.185ZM23.774,10.929L23.774,21.12L30.892,28.329L27.786,31.474L19.384,22.961L19.384,10.929L23.774,10.929Z" fill="#000000"/>
</svg>
