<svg width="40" height="42" viewBox="0 0 40 42" fill="none" xmlns="http://www.w3.org/2000/svg" xmlns:xlink="http://www.w3.org/1999/xlink">
<path d="M39.949,38.464C39.949,39.054 39.717,39.619 39.306,40.036C38.894,40.453 38.336,40.687 37.754,40.687L2.636,40.687C2.054,40.687 1.495,40.453 1.084,40.036C0.672,39.619 0.441,39.054 0.441,38.464L0.441,15.103C0.441,14.765 0.517,14.43 0.664,14.126C0.811,13.822 1.024,13.555 1.288,13.347L18.847,-0.483C19.232,-0.786 19.707,-0.951 20.195,-0.951C20.683,-0.951 21.157,-0.786 21.542,-0.483L39.101,13.347C39.365,13.555 39.579,13.822 39.726,14.126C39.873,14.43 39.949,14.765 39.949,15.103L39.949,38.464L39.949,38.464ZM9.22,27.351L9.22,31.796L31.169,31.796L31.169,27.351L9.22,27.351Z" fill="#000000"/>
</svg>
