<svg width="38" height="40" viewBox="0 0 38 40" fill="none" xmlns="http://www.w3.org/2000/svg" xmlns:xlink="http://www.w3.org/1999/xlink">
<path d="M16,0C24.136,0 30.852,6.072 31.868,13.93L36.368,21.008C36.664,21.474 36.604,22.168 35.918,22.464L32,24.14L32,30C32,32.21 30.21,34 28,34L24.002,34L24,40L6,40L6,32.612C6,30.252 5.128,28.018 3.512,26.002C1.314,23.262 0,19.784 0,16C0,7.164 7.164,0 16,0ZM16,4C9.372,4 4,9.372 4,16C4,18.77 4.936,21.386 6.632,23.5C8.82,26.228 10,29.334 10,32.612L10,36L20,36L20.004,30L28,30L28,21.504L31.1,20.176L28.014,15.326L27.9,14.442C27.132,8.502 22.048,4 16,4ZM14.94,11.526L16,12.586L17.06,11.526C18.428,10.158 20.644,10.158 22.01,11.526C23.378,12.892 23.378,15.108 22.01,16.474L16,22.486L9.99,16.474C8.622,15.108 8.622,12.892 9.99,11.526C11.356,10.158 13.572,10.158 14.94,11.526Z" fill="#000000"/>
</svg>
