<svg width="10" height="42" viewBox="0 0 10 42" fill="none" xmlns="http://www.w3.org/2000/svg" xmlns:xlink="http://www.w3.org/1999/xlink">
<path d="M4.544,0.038C2.129,0.038 0.154,2.038 0.154,4.483C0.154,6.928 2.129,8.929 4.544,8.929C6.958,8.929 8.933,6.928 8.933,4.483C8.933,2.038 6.958,0.038 4.544,0.038ZM4.544,31.156C2.129,31.156 0.154,33.157 0.154,35.602C0.154,38.047 2.129,40.047 4.544,40.047C6.958,40.047 8.933,38.047 8.933,35.602C8.933,33.157 6.958,31.156 4.544,31.156ZM4.544,15.597C2.129,15.597 0.154,17.598 0.154,20.043C0.154,22.488 2.129,24.488 4.544,24.488C6.958,24.488 8.933,22.488 8.933,20.043C8.933,17.598 6.958,15.597 4.544,15.597Z" fill="#000000"/>
</svg>
