<svg width="40" height="40" viewBox="0 0 40 40" fill="none" xmlns="http://www.w3.org/2000/svg" xmlns:xlink="http://www.w3.org/1999/xlink">
<path d="M38,0C39.104,0 40,0.896 40,2L40,30C40,31.104 39.104,32 38,32L8.91,32L0,39L0,2C0,0.896 0.896,0 2,0L38,0ZM36,4L4,4L4,30.77L7.526,28L36,28L36,4ZM17.03,8.824L17.924,10.2C14.588,12.006 14.646,14.904 14.646,15.528C14.956,15.488 15.282,15.48 15.606,15.51C17.41,15.678 18.832,17.16 18.832,19C18.832,20.932 17.264,22.5 15.332,22.5C14.258,22.5 13.232,22.01 12.584,21.32C11.554,20.228 11,19 11,17.01C11,13.51 13.456,10.374 17.03,8.824L17.03,8.824ZM27.03,8.824L27.924,10.2C24.588,12.006 24.646,14.904 24.646,15.528C24.956,15.488 25.282,15.48 25.606,15.51C27.41,15.678 28.832,17.16 28.832,19C28.832,20.932 27.264,22.5 25.332,22.5C24.258,22.5 23.232,22.01 22.584,21.32C21.554,20.228 21,19 21,17.01C21,13.51 23.456,10.374 27.03,8.824L27.03,8.824Z" fill="#000000"/>
</svg>
