<svg width="38" height="44" viewBox="0 0 38 44" fill="none" xmlns="http://www.w3.org/2000/svg" xmlns:xlink="http://www.w3.org/1999/xlink">
<path d="M9.5,22C9.5,24.393 7.56,26.333 5.167,26.333L5.167,28C8.48,28 11.167,25.314 11.167,22L9.5,22ZM5.167,26.333C2.773,26.333 0.833,24.393 0.833,22L-0.833,22C-0.833,25.314 1.853,28 5.167,28L5.167,26.333ZM0.833,22C0.833,19.607 2.773,17.667 5.167,17.667L5.167,16C1.853,16 -0.833,18.686 -0.833,22L0.833,22ZM5.167,17.667C7.56,17.667 9.5,19.607 9.5,22L11.167,22C11.167,18.686 8.48,16 5.167,16L5.167,17.667ZM35.333,6.5C35.333,8.893 33.393,10.833 31,10.833L31,12.5C34.314,12.5 37,9.814 37,6.5L35.333,6.5ZM31,10.833C28.607,10.833 26.667,8.893 26.667,6.5L25,6.5C25,9.814 27.686,12.5 31,12.5L31,10.833ZM26.667,6.5C26.667,4.107 28.607,2.167 31,2.167L31,0.5C27.686,0.5 25,3.186 25,6.5L26.667,6.5ZM31,2.167C33.393,2.167 35.333,4.107 35.333,6.5L37,6.5C37,3.186 34.314,0.5 31,0.5L31,2.167ZM25.397,8.374L8.605,18.707L9.478,20.126L26.27,9.793L25.397,8.374ZM35.333,37.5C35.333,39.893 33.393,41.833 31,41.833L31,43.5C34.314,43.5 37,40.814 37,37.5L35.333,37.5ZM31,41.833C28.607,41.833 26.667,39.893 26.667,37.5L25,37.5C25,40.814 27.686,43.5 31,43.5L31,41.833ZM26.667,37.5C26.667,35.107 28.607,33.167 31,33.167L31,31.5C27.686,31.5 25,34.186 25,37.5L26.667,37.5ZM31,33.167C33.393,33.167 35.333,35.107 35.333,37.5L37,37.5C37,34.186 34.314,31.5 31,31.5L31,33.167ZM8.647,26.609L25.438,35.65L26.228,34.183L9.437,25.141L8.647,26.609ZM9.5,22C9.5,24.393 7.56,26.333 5.167,26.333L5.167,28C8.48,28 11.167,25.314 11.167,22L9.5,22ZM5.167,26.333C2.773,26.333 0.833,24.393 0.833,22L-0.833,22C-0.833,25.314 1.853,28 5.167,28L5.167,26.333ZM0.833,22C0.833,19.607 2.773,17.667 5.167,17.667L5.167,16C1.853,16 -0.833,18.686 -0.833,22L0.833,22ZM5.167,17.667C7.56,17.667 9.5,19.607 9.5,22L11.167,22C11.167,18.686 8.48,16 5.167,16L5.167,17.667ZM25.397,8.374L8.605,18.707L9.478,20.126L26.27,9.793L25.397,8.374ZM8.647,26.609L25.438,35.65L26.228,34.183L9.437,25.141L8.647,26.609Z" fill="#000000"/>
</svg>
