<svg width="36" height="38" viewBox="0 0 36 38" fill="none" xmlns="http://www.w3.org/2000/svg" xmlns:xlink="http://www.w3.org/1999/xlink">
<path d="M7.167,16C7.167,16.46 7.54,16.833 8,16.833C8.46,16.833 8.833,16.46 8.833,16L7.167,16ZM27.167,16C27.167,16.46 27.54,16.833 28,16.833C28.46,16.833 28.833,16.46 28.833,16L27.167,16ZM2.167,26.667C2.167,24.286 2.168,22.585 2.342,21.291C2.513,20.022 2.836,19.272 3.387,18.72L2.209,17.542C1.296,18.455 0.886,19.615 0.691,21.069C0.498,22.499 0.5,24.333 0.5,26.667L2.167,26.667ZM3.387,18.72C3.939,18.169 4.689,17.846 5.958,17.676C7.251,17.502 8.953,17.5 11.333,17.5L11.333,15.833C9,15.833 7.166,15.832 5.736,16.024C4.282,16.219 3.121,16.629 2.209,17.542L3.387,18.72ZM11.333,17.5L24.667,17.5L24.667,15.833L11.333,15.833L11.333,17.5ZM24.667,17.5C27.047,17.5 28.749,17.502 30.042,17.676C31.311,17.846 32.061,18.169 32.613,18.72L33.791,17.542C32.879,16.629 31.718,16.219 30.264,16.024C28.834,15.832 27,15.833 24.667,15.833L24.667,17.5ZM32.613,18.72C33.165,19.272 33.487,20.022 33.658,21.291C33.832,22.585 33.833,24.286 33.833,26.667L35.5,26.667C35.5,24.333 35.502,22.499 35.31,21.069C35.114,19.615 34.704,18.455 33.791,17.542L32.613,18.72ZM33.833,26.667C33.833,29.047 33.832,30.749 33.658,32.042C33.487,33.311 33.165,34.061 32.613,34.613L33.791,35.791C34.704,34.879 35.114,33.718 35.31,32.264C35.502,30.834 35.5,29 35.5,26.667L33.833,26.667ZM32.613,34.613C32.061,35.165 31.311,35.487 30.042,35.658C28.749,35.832 27.047,35.833 24.667,35.833L24.667,37.5C27,37.5 28.834,37.502 30.264,37.31C31.718,37.114 32.879,36.704 33.791,35.791L32.613,34.613ZM24.667,35.833L11.333,35.833L11.333,37.5L24.667,37.5L24.667,35.833ZM11.333,35.833C8.953,35.833 7.251,35.832 5.958,35.658C4.689,35.487 3.939,35.165 3.387,34.613L2.209,35.791C3.121,36.704 4.282,37.114 5.736,37.31C7.166,37.502 9,37.5 11.333,37.5L11.333,35.833ZM3.387,34.613C2.836,34.061 2.513,33.311 2.342,32.042C2.168,30.749 2.167,29.047 2.167,26.667L0.5,26.667C0.5,29 0.498,30.834 0.691,32.264C0.886,33.718 1.296,34.879 2.209,35.791L3.387,34.613ZM8.833,16L8.833,12.333L7.167,12.333L7.167,16L8.833,16ZM8.833,12.333C8.833,6.642 13.01,2.167 18,2.167L18,0.5C11.944,0.5 7.167,5.875 7.167,12.333L8.833,12.333ZM18,2.167C22.99,2.167 27.167,6.642 27.167,12.333L28.833,12.333C28.833,5.875 24.056,0.5 18,0.5L18,2.167ZM27.167,12.333L27.167,16L28.833,16L28.833,12.333L27.167,12.333Z" fill="#000000"/>
</svg>
