<svg width="36" height="26" viewBox="0 0 36 26" fill="none" xmlns="http://www.w3.org/2000/svg" xmlns:xlink="http://www.w3.org/1999/xlink">
<path d="M14.225,21.003C17.393,21.003 20.351,20.269 22.755,19.045L31.802,25.491C32.222,25.79 32.775,25.94 33.348,25.94C34.588,25.94 35.485,25.26 35.485,24.389C35.485,23.981 35.294,23.601 34.874,23.301L25.885,16.883C27.775,15.115 28.901,12.926 28.901,10.546C28.901,4.794 22.298,0.089 14.225,0.089C6.133,0.089 -0.452,4.794 -0.452,10.546C-0.452,16.298 6.133,21.003 14.225,21.003ZM14.225,18.746C7.907,18.746 2.716,15.034 2.716,10.546C2.716,6.059 7.907,2.347 14.225,2.347C20.523,2.347 25.733,6.059 25.733,10.546C25.733,15.034 20.523,18.746 14.225,18.746Z" fill="#3D56FA"/>
</svg>
