<svg width="44" height="42" viewBox="0 0 44 42" fill="none" xmlns="http://www.w3.org/2000/svg" xmlns:xlink="http://www.w3.org/1999/xlink">
<path d="M34,12L44,12L44,16L34,16L34,12ZM30,22L44,22L44,26L30,26L30,22ZM36,32L44,32L44,36L36,36L36,32ZM0,42C0,37.757 1.686,33.687 4.686,30.686C7.687,27.686 11.757,26 16,26C20.243,26 24.313,27.686 27.314,30.686C30.314,33.687 32,37.757 32,42L28,42C28,38.817 26.736,35.765 24.485,33.515C22.235,31.264 19.183,30 16,30C12.817,30 9.765,31.264 7.515,33.515C5.264,35.765 4,38.817 4,42L0,42ZM16,24C9.37,24 4,18.63 4,12C4,5.37 9.37,0 16,0C22.63,0 28,5.37 28,12C28,18.63 22.63,24 16,24ZM16,20C20.42,20 24,16.42 24,12C24,7.58 20.42,4 16,4C11.58,4 8,7.58 8,12C8,16.42 11.58,20 16,20Z" fill="#000000"/>
</svg>
