<svg width="44" height="48" viewBox="0 0 44 48" fill="none" xmlns="http://www.w3.org/2000/svg" xmlns:xlink="http://www.w3.org/1999/xlink">
<path d="M38.574,33.156L42.964,33.156L42.964,37.602L-0.934,37.602L-0.934,33.156L3.456,33.156L3.456,17.597C3.456,12.881 5.306,8.358 8.599,5.023C11.892,1.689 16.358,-0.185 21.015,-0.185C25.672,-0.185 30.138,1.689 33.431,5.023C36.724,8.358 38.574,12.881 38.574,17.597L38.574,33.156ZM34.184,33.156L34.184,17.597C34.184,14.06 32.797,10.668 30.327,8.167C27.857,5.666 24.508,4.261 21.015,4.261C17.522,4.261 14.173,5.666 11.703,8.167C9.233,10.668 7.846,14.06 7.846,17.597L7.846,33.156L34.184,33.156ZM14.431,42.047L27.6,42.047L27.6,46.493L14.431,46.493L14.431,42.047Z" fill="#000000"/>
</svg>
