<svg width="42" height="38" viewBox="0 0 42 38" fill="none" xmlns="http://www.w3.org/2000/svg" xmlns:xlink="http://www.w3.org/1999/xlink">
<path d="M33,16L41.8,38L37.49,38L35.088,32L26.908,32L24.51,38L20.202,38L29,16L33,16ZM16,0L16,4L28,4L28,8L24.064,8C22.521,12.644 20.059,16.93 16.824,20.602C18.267,21.889 19.831,23.033 21.496,24.016L19.994,27.772C17.845,26.553 15.835,25.104 14,23.45C10.427,26.683 6.196,29.104 1.598,30.546L0.526,26.688C4.466,25.432 8.096,23.359 11.18,20.604C8.897,18.02 6.996,15.123 5.534,12L10.014,12C11.129,14.058 12.465,15.987 14,17.754C16.5,14.872 18.471,11.571 19.82,8.002L0,8L0,4L12,4L12,0L16,0ZM31,21.77L28.506,28L33.49,28L31,21.77Z" fill="#000000"/>
</svg>
