<svg width="44" height="36" viewBox="0 0 44 36" fill="none" xmlns="http://www.w3.org/2000/svg" xmlns:xlink="http://www.w3.org/1999/xlink">
<path d="M42,32L42,36L38,36L38,32L6,32L6,36L2,36L2,32C1.47,32 0.961,31.789 0.586,31.414C0.211,31.039 0,30.53 0,30L0,6C0,5.47 0.211,4.961 0.586,4.586C0.961,4.211 1.47,4 2,4L23.056,4C24.18,2.74 25.559,1.732 27.1,1.043C28.641,0.354 30.311,-0.002 32,0C35.554,0 38.748,1.546 40.944,4L42,4C42.53,4 43.039,4.211 43.414,4.586C43.789,4.961 44,5.47 44,6L44,30C44,30.53 43.789,31.039 43.414,31.414C43.039,31.789 42.53,32 42,32ZM20.682,8L4,8L4,28L40,28L40,20.944C38.014,22.723 35.493,23.789 32.834,23.976C30.174,24.162 27.529,23.458 25.314,21.974C23.1,20.49 21.442,18.311 20.603,15.781C19.765,13.251 19.792,10.513 20.682,8L20.682,8ZM32,20C34.122,20 36.157,19.157 37.657,17.657C39.157,16.157 40,14.122 40,12C40,9.878 39.157,7.843 37.657,6.343C36.157,4.843 34.122,4 32,4C29.878,4 27.843,4.843 26.343,6.343C24.843,7.843 24,9.878 24,12C24,14.122 24.843,16.157 26.343,17.657C27.843,19.157 29.878,20 32,20L32,20ZM8,20L12,20L12,24L8,24L8,20ZM14,20L18,20L18,24L14,24L14,20Z" fill="#000000"/>
</svg>
