<svg width="40" height="42" viewBox="0 0 40 42" fill="none" xmlns="http://www.w3.org/2000/svg" xmlns:xlink="http://www.w3.org/1999/xlink">
<path d="M36,30L40,30L40,34L0,34L0,30L4,30L4,16C4,11.757 5.686,7.687 8.686,4.686C11.687,1.686 15.757,0 20,0C24.243,0 28.313,1.686 31.314,4.686C34.314,7.687 36,11.757 36,16L36,30ZM32,30L32,16C32,12.817 30.736,9.765 28.485,7.515C26.235,5.264 23.183,4 20,4C16.817,4 13.765,5.264 11.515,7.515C9.264,9.765 8,12.817 8,16L8,30L32,30ZM14,38L26,38L26,42L14,42L14,38Z" fill="#000000"/>
</svg>
