<svg width="44" height="42" viewBox="0 0 44 42" fill="none" xmlns="http://www.w3.org/2000/svg" xmlns:xlink="http://www.w3.org/1999/xlink">
<path d="M-0.369,2.397C-0.365,1.813 -0.135,1.254 0.273,0.841C0.68,0.428 1.232,0.194 1.808,0.189L41.351,0.189C42.554,0.189 43.528,1.179 43.528,2.397L43.528,37.992C43.524,38.575 43.294,39.134 42.886,39.547C42.479,39.96 41.927,40.194 41.351,40.199L1.808,40.199C1.231,40.198 0.677,39.965 0.268,39.552C-0.14,39.138 -0.369,38.577 -0.369,37.992L-0.369,2.397ZM8.41,26.862L8.41,31.308L34.749,31.308L34.749,26.862L8.41,26.862ZM8.41,9.08L8.41,22.417L21.58,22.417L21.58,9.08L8.41,9.08ZM25.969,9.08L25.969,13.526L34.749,13.526L34.749,9.08L25.969,9.08ZM25.969,17.971L25.969,22.417L34.749,22.417L34.749,17.971L25.969,17.971ZM12.8,13.526L17.19,13.526L17.19,17.971L12.8,17.971L12.8,13.526Z" fill="#000000"/>
</svg>
