<svg width="46" height="42" viewBox="0 0 46 42" fill="none" xmlns="http://www.w3.org/2000/svg" xmlns:xlink="http://www.w3.org/1999/xlink">
<path d="M43.149,6.858L27.785,6.858C24.292,6.858 20.942,8.263 18.473,10.764C16.003,13.265 14.616,16.657 14.616,20.194C14.616,23.731 16.003,27.123 18.473,29.624C20.942,32.126 24.292,33.531 27.785,33.531L43.149,33.531L43.149,37.976C43.149,38.566 42.918,39.131 42.506,39.548C42.094,39.965 41.536,40.199 40.954,40.199L1.446,40.199C0.864,40.199 0.306,39.965 -0.106,39.548C-0.517,39.131 -0.749,38.566 -0.749,37.976L-0.749,2.412C-0.749,1.823 -0.517,1.257 -0.106,0.84C0.306,0.424 0.864,0.189 1.446,0.189L40.954,0.189C41.536,0.189 42.094,0.424 42.506,0.84C42.918,1.257 43.149,1.823 43.149,2.412L43.149,6.858ZM27.785,11.303L45.344,11.303L45.344,29.085L27.785,29.085C25.456,29.085 23.223,28.148 21.577,26.481C19.93,24.814 19.005,22.552 19.005,20.194C19.005,17.836 19.93,15.575 21.577,13.907C23.223,12.24 25.456,11.303 27.785,11.303L27.785,11.303ZM27.785,17.971L27.785,22.417L34.369,22.417L34.369,17.971L27.785,17.971Z" fill="#000000"/>
</svg>
