<svg width="40" height="30" viewBox="0 0 40 30" fill="none" xmlns="http://www.w3.org/2000/svg" xmlns:xlink="http://www.w3.org/1999/xlink">
<path d="M37.273,0.667L2.727,0.667C2.005,0.669 1.312,0.959 0.801,1.474C0.29,1.99 0.002,2.688 0,3.417L0,27.25C0,27.979 0.287,28.679 0.799,29.194C1.31,29.71 2.004,30 2.727,30L37.273,30C37.996,30 38.69,29.71 39.201,29.194C39.713,28.679 40,27.979 40,27.25L40,3.417C39.998,2.688 39.71,1.99 39.199,1.474C38.688,0.959 37.995,0.669 37.273,0.667ZM20,15.462L3.309,2.5L36.691,2.5L20,15.462ZM14.825,13.757L1.818,26.869L1.818,3.657L14.825,13.757ZM16.276,14.884L20,17.772L23.724,14.882L36.896,28.167L3.104,28.167L16.276,14.884ZM25.175,13.755L38.182,3.657L38.182,26.87L25.175,13.755Z" fill="#000000"/>
</svg>
