<svg width="46" height="42" viewBox="0 0 46 42" fill="none" xmlns="http://www.w3.org/2000/svg" xmlns:xlink="http://www.w3.org/1999/xlink">
<path d="M43.148,7.569L27.784,7.569C24.292,7.569 20.942,8.974 18.472,11.475C16.003,13.976 14.615,17.368 14.615,20.905C14.615,24.442 16.003,27.834 18.472,30.335C20.942,32.837 24.292,34.242 27.784,34.242L43.148,34.242L43.148,38.687C43.148,39.277 42.917,39.842 42.506,40.259C42.094,40.676 41.536,40.91 40.954,40.91L1.446,40.91C0.864,40.91 0.305,40.676 -0.106,40.259C-0.518,39.842 -0.749,39.277 -0.749,38.687L-0.749,3.123C-0.749,2.534 -0.518,1.968 -0.106,1.551C0.305,1.135 0.864,0.9 1.446,0.9L40.954,0.9C41.536,0.9 42.094,1.135 42.506,1.551C42.917,1.968 43.148,2.534 43.148,3.123L43.148,7.569ZM27.784,12.014L45.343,12.014L45.343,29.796L27.784,29.796C25.456,29.796 23.223,28.859 21.576,27.192C19.93,25.525 19.005,23.263 19.005,20.905C19.005,18.547 19.93,16.286 21.576,14.618C23.223,12.951 25.456,12.014 27.784,12.014L27.784,12.014ZM27.784,18.682L27.784,23.128L34.369,23.128L34.369,18.682L27.784,18.682Z" fill="#000000"/>
</svg>
