<svg width="40" height="40" viewBox="0 0 40 40" fill="none" xmlns="http://www.w3.org/2000/svg" xmlns:xlink="http://www.w3.org/1999/xlink">
<path d="M13.3,12.596L13.156,11.607L13.3,12.596ZM2.004,14.247L1.859,13.258L2.004,14.247ZM9.911,24.799L10.897,24.968L9.911,24.799ZM9.623,23.913L10.321,23.197L9.623,23.913ZM9.434,37.097L8.968,36.212L9.434,37.097ZM20.465,31.785L20.931,30.9L20.465,31.785ZM19.535,31.785L19.069,30.9L19.535,31.785ZM30.566,37.097L31.032,36.212L30.566,37.097ZM30.377,23.913L31.075,24.63L30.377,23.913ZM30.089,24.799L29.103,24.968L30.089,24.799ZM38.549,15.953L39.247,16.669L38.549,15.953ZM25.948,12.049L25.051,12.492L25.948,12.049ZM26.7,12.596L26.844,11.607L26.7,12.596ZM20.897,1.817L20,2.259L20.897,1.817ZM19.103,1.817L18.207,1.374L19.103,1.817ZM20,2.259L25.051,12.492L26.844,11.607L21.793,1.374L20,2.259ZM26.555,13.586L37.852,15.237L38.141,13.258L26.844,11.607L26.555,13.586ZM37.852,15.237L29.679,23.197L31.075,24.63L39.247,16.669L37.852,15.237ZM29.103,24.968L31.032,36.212L33.003,35.874L31.075,24.63L29.103,24.968ZM31.032,36.212L20.931,30.9L20,32.67L30.101,37.982L31.032,36.212ZM19.069,30.9L8.968,36.212L9.899,37.982L20,32.67L19.069,30.9ZM8.968,36.212L10.897,24.968L8.925,24.63L6.997,35.874L8.968,36.212ZM10.321,23.197L2.148,15.237L0.753,16.669L8.925,24.63L10.321,23.197ZM2.148,15.237L13.445,13.586L13.156,11.607L1.859,13.258L2.148,15.237ZM14.949,12.492L20,2.259L18.207,1.374L13.156,11.607L14.949,12.492ZM13.445,13.586C14.096,13.49 14.658,13.082 14.949,12.492L13.156,11.607L13.156,11.607L13.445,13.586ZM2.148,15.237L2.148,15.237L1.859,13.258C0.219,13.497 -0.434,15.513 0.753,16.669L2.148,15.237ZM10.897,24.968C11.008,24.319 10.793,23.656 10.321,23.197L8.925,24.63L8.925,24.63L10.897,24.968ZM8.968,36.212L8.968,36.212L6.997,35.874C6.717,37.508 8.432,38.754 9.899,37.982L8.968,36.212ZM20.931,30.9C20.348,30.593 19.652,30.593 19.069,30.9L20,32.67L20,32.67L20.931,30.9ZM31.032,36.212L31.032,36.212L30.101,37.982C31.568,38.754 33.283,37.508 33.003,35.874L31.032,36.212ZM29.679,23.197C29.207,23.656 28.992,24.319 29.103,24.968L31.075,24.63L31.075,24.63L29.679,23.197ZM37.852,15.237L37.852,15.237L39.247,16.669C40.434,15.513 39.781,13.497 38.141,13.258L37.852,15.237ZM25.051,12.492C25.342,13.082 25.904,13.49 26.555,13.586L26.844,11.607L26.844,11.607L25.051,12.492ZM21.793,1.374C21.06,-0.112 18.94,-0.112 18.207,1.374L20,2.259L20,2.259L21.793,1.374Z" fill="#000000"/>
</svg>
