<svg width="32" height="42" viewBox="0 0 32 42" fill="none" xmlns="http://www.w3.org/2000/svg" xmlns:xlink="http://www.w3.org/1999/xlink">
<path d="M5.636,0.001C2.523,0.001 0.667,1.858 0.667,4.971L0.667,35.031C0.667,38.144 2.523,40.001 5.636,40.001L26.848,40.001C29.961,40.001 31.818,38.144 31.818,35.031L31.818,14.042C31.818,12.547 32.057,11.724 31,10.667L20.667,1C19.61,-0.057 19.272,0.001 17.777,0.001L5.636,0.001ZM2.505,4.971C2.505,3.001 4.68,1.759 5.717,1.759L16.828,1.759L16.828,12.486C16.828,14.561 17.258,14.324 19.333,14.324L29.98,14.324L29.98,35.031C29.868,37.001 27.805,38.243 26.768,38.243L5.717,38.243C4.68,38.243 2.333,37.001 2.505,35.031L2.505,4.971ZM29.868,12.486L18.667,1.87L18.667,12.486L29.868,12.486Z" clip-rule="evenodd" fill-rule="evenodd" fill="#000000"/>
</svg>
