<svg width="36" height="42" viewBox="0 0 36 42" fill="none" xmlns="http://www.w3.org/2000/svg" xmlns:xlink="http://www.w3.org/1999/xlink">
<path d="M6,14L6,12C6,8.817 7.264,5.765 9.515,3.515C11.765,1.264 14.817,0 18,0C21.183,0 24.235,1.264 26.485,3.515C28.736,5.765 30,8.817 30,12L30,14L34,14C34.53,14 35.039,14.211 35.414,14.586C35.789,14.961 36,15.47 36,16L36,40C36,40.53 35.789,41.039 35.414,41.414C35.039,41.789 34.53,42 34,42L2,42C1.47,42 0.961,41.789 0.586,41.414C0.211,41.039 0,40.53 0,40L0,16C0,15.47 0.211,14.961 0.586,14.586C0.961,14.211 1.47,14 2,14L6,14ZM32,18L4,18L4,38L32,38L32,18ZM16,29.464C15.237,29.024 14.641,28.344 14.304,27.531C13.968,26.717 13.908,25.815 14.136,24.965C14.364,24.114 14.866,23.363 15.565,22.826C16.264,22.29 17.119,22 18,22C18.881,22 19.736,22.29 20.435,22.826C21.134,23.363 21.636,24.114 21.864,24.965C22.092,25.815 22.032,26.717 21.696,27.531C21.359,28.344 20.763,29.024 20,29.464L20,34L16,34L16,29.464ZM10,14L26,14L26,12C26,9.878 25.157,7.843 23.657,6.343C22.157,4.843 20.122,4 18,4C15.878,4 13.843,4.843 12.343,6.343C10.843,7.843 10,9.878 10,12L10,14Z" fill="#000000"/>
</svg>
