<svg width="36" height="36" viewBox="0 0 36 36" fill="none" xmlns="http://www.w3.org/2000/svg" xmlns:xlink="http://www.w3.org/1999/xlink">
<path d="M17.999,23.545C21.06,23.545 23.542,21.064 23.542,18.003C23.542,14.942 21.06,12.461 17.999,12.461C14.938,12.461 12.457,14.942 12.457,18.003C12.457,21.064 14.938,23.545 17.999,23.545Z" fill="#9493AC"/>
<path d="M35.448,16.468C31.188,11.32 24.739,6.364 18,6.364C11.26,6.364 4.81,11.323 0.552,16.468C-0.184,17.357 -0.184,18.649 0.552,19.538C1.623,20.832 3.867,23.328 6.864,25.51C14.411,31.005 21.572,31.017 29.137,25.51C32.134,23.328 34.377,20.832 35.448,19.538C36.182,18.65 36.186,17.36 35.448,16.468L35.448,16.468ZM18,10.244C22.279,10.244 25.759,13.724 25.759,18.003C25.759,22.282 22.279,25.762 18,25.762C13.721,25.762 10.241,22.282 10.241,18.003C10.241,13.724 13.721,10.244 18,10.244Z" fill="#9493AC"/>
</svg>
