<svg width="32" height="28" viewBox="0 0 32 28" fill="none" xmlns="http://www.w3.org/2000/svg" xmlns:xlink="http://www.w3.org/1999/xlink">
<path d="M16.265,17.879C17.544,17.879 18.787,18.215 19.882,18.856L20.326,19.116C20.662,19.313 20.721,19.773 20.446,20.048L16.657,23.826C16.425,24.058 16.048,24.058 15.815,23.826L12.051,20.073C11.776,19.799 11.834,19.34 12.167,19.142L12.606,18.881C13.711,18.224 14.97,17.879 16.265,17.879Z" fill="#000000"/>
<path d="M16.265,10.94C19.447,10.94 22.502,11.995 24.99,13.95L25.342,14.226C25.623,14.446 25.647,14.861 25.395,15.113L23.133,17.368C22.924,17.577 22.593,17.601 22.356,17.425L22.08,17.22C20.399,15.97 18.373,15.3 16.265,15.3C14.145,15.3 12.106,15.979 10.42,17.242L10.144,17.449C9.907,17.627 9.575,17.603 9.365,17.394L7.104,15.14C6.852,14.889 6.876,14.475 7.155,14.254L7.505,13.978C10,12.005 13.068,10.94 16.265,10.94Z" fill="#000000"/>
<path d="M16.265,4C21.315,4 26.143,5.781 29.966,9.046L30.292,9.325C30.555,9.55 30.571,9.951 30.325,10.196L28.071,12.444C27.853,12.662 27.504,12.677 27.267,12.479L26.988,12.246C23.979,9.729 20.207,8.361 16.265,8.361C12.31,8.361 8.527,9.739 5.513,12.271L5.234,12.505C4.997,12.704 4.647,12.689 4.428,12.471L2.175,10.224C1.929,9.979 1.944,9.578 2.207,9.353L2.532,9.074C6.359,5.792 11.201,4 16.265,4Z" fill="#000000"/>
</svg>
